<?xml version="1.0" encoding="utf-8"?>
<!-- Generator: Adobe Illustrator 17.0.0, SVG Export Plug-In . SVG Version: 6.00 Build 0)  -->
<!DOCTYPE svg PUBLIC "-//W3C//DTD SVG 1.1//EN" "http://www.w3.org/Graphics/SVG/1.1/DTD/svg11.dtd">
<svg version="1.1" xmlns="http://www.w3.org/2000/svg" xmlns:xlink="http://www.w3.org/1999/xlink" x="0px" y="0px" width="500px"
	 height="500px" viewBox="0 0 500 500" enable-background="new 0 0 500 500" xml:space="preserve">
<g id="Layer_1">
	<g>
		<path d="M250,20c31.056,0,61.176,6.079,89.522,18.068c27.386,11.583,51.985,28.169,73.113,49.297
			c21.128,21.128,37.714,45.726,49.297,73.113C473.921,188.824,480,218.944,480,250s-6.079,61.176-18.068,89.522
			c-11.583,27.386-28.169,51.985-49.297,73.113c-21.128,21.128-45.726,37.714-73.113,49.297C311.176,473.921,281.056,480,250,480
			s-61.176-6.079-89.522-18.068c-27.386-11.583-51.985-28.169-73.113-49.297c-21.128-21.128-37.714-45.726-49.297-73.113
			C26.079,311.176,20,281.056,20,250s6.079-61.176,18.068-89.522c11.583-27.386,28.169-51.985,49.297-73.113
			c21.128-21.128,45.726-37.714,73.113-49.297C188.824,26.079,218.944,20,250,20 M250,5C114.69,5,5,114.69,5,250s109.69,245,245,245
			s245-109.69,245-245S385.31,5,250,5L250,5z"/>
	</g>
	<g>
		<path d="M111.401,272.046c0-14.467,4.158-27.285,12.476-38.452c8.317-11.391,19.083-19.311,32.301-23.754
			c2.505-13.442,9.169-24.722,19.995-33.838c10.708-8.999,23.184-13.501,37.427-13.501c10.024,0,19.227,2.337,27.6,7.007
			c8.375,4.673,15.297,10.996,20.765,18.97c9.34-7.519,19.937-11.28,31.788-11.28c14.24,0,26.318,5.015,36.229,15.039
			c9.913,9.912,14.869,21.934,14.869,36.06c0,0.799-0.059,1.824-0.171,3.076c-0.115,1.255-0.286,2.793-0.513,4.614
			c12.647,1.597,23.184,7.178,31.617,16.748c8.546,9.57,12.818,20.794,12.818,33.668c0,14.128-4.956,26.207-14.869,36.231
			c-9.911,9.911-21.99,14.867-36.229,14.867H177.197c-18.345,0-33.897-6.381-46.655-19.141
			C117.781,305.601,111.401,290.161,111.401,272.046z"/>
	</g>
</g>
<g id="Layer_2">
</g>
<g id="Layer_3">
</g>
</svg>
