<?xml version="1.0" encoding="utf-8"?>
<!-- Generator: Adobe Illustrator 15.0.0, SVG Export Plug-In . SVG Version: 6.00 Build 0)  -->
<!DOCTYPE svg PUBLIC "-//W3C//DTD SVG 1.1//EN" "http://www.w3.org/Graphics/SVG/1.1/DTD/svg11.dtd">
<svg version="1.1" id="Layer_1" xmlns="http://www.w3.org/2000/svg" xmlns:xlink="http://www.w3.org/1999/xlink" x="0px" y="0px"
	 width="916px" height="610px" viewBox="0 0 916 610" enable-background="new 0 0 916 610" xml:space="preserve">
<path fill="#5D5F63" d="M156.841,46.863H142.66c-4.38-10.319-14.604-17.554-26.529-17.554c-3.9,0-7.634,0.793-11.038,2.209
	C97.931,19.255,84.68,11,69.461,11c-21.075,0-38.447,15.837-40.913,36.24C17.459,49.065,9,58.597,9,70.207
	c0,12.226,9.475,22.347,21.478,23.307l0,0h126.363c12.89,0,23.325-10.434,23.325-23.307
	C180.166,57.301,169.73,46.863,156.841,46.863"/>
<g>
	<g enable-background="new    ">
		<path fill="#5D5F63" d="M237.281,77.376v-8.539h1.295v8.539H237.281z"/>
		<path fill="#5D5F63" d="M246.05,77.376l-3.946-6.009v6.009h-1.295v-8.539h1.188l3.946,5.996v-5.996h1.295v8.539H246.05z"/>
		<path fill="#5D5F63" d="M252.364,70v7.376h-1.295V70h-2.351v-1.163h5.997V70H252.364z"/>
		<path fill="#5D5F63" d="M256.193,77.376v-8.539h5.457V70h-4.162v2.495h3.55v1.151h-3.55v2.566h4.162v1.163H256.193z"/>
		<path fill="#5D5F63" d="M268.142,77.376l-1.799-3.598h-1.619v3.598h-1.295v-8.539h3.311c1.619,0,2.65,1.043,2.65,2.494
			c0,1.224-0.744,2.003-1.703,2.267l1.967,3.778H268.142z M266.643,70h-1.919v2.675h1.919c0.864,0,1.451-0.492,1.451-1.331
			C268.094,70.504,267.507,70,266.643,70z"/>
		<path fill="#5D5F63" d="M276.53,77.376l-3.946-6.009v6.009h-1.295v-8.539h1.188l3.946,5.996v-5.996h1.295v8.539H276.53z"/>
		<path fill="#5D5F63" d="M279.953,77.376v-8.539h5.457V70h-4.162v2.495h3.55v1.151h-3.55v2.566h4.162v1.163H279.953z"/>
		<path fill="#5D5F63" d="M290.079,70v7.376h-1.295V70h-2.351v-1.163h5.997V70H290.079z"/>
	</g>
</g>
<rect x="195" y="72.514" fill="#5D5F63" width="35" height="1"/>
<g>
	<g enable-background="new    ">
		<path fill="#5D5F63" d="M369.411,244.624v2.603h3.55v1.163h-3.55V252h-1.295v-8.539h5.457v1.163H369.411z"/>
		<path fill="#5D5F63" d="M375.135,252v-8.539h1.295v7.376h4.114V252H375.135z"/>
		<path fill="#5D5F63" d="M384.698,252.072c-1.739,0-3.059-1.188-3.059-2.951v-5.66h1.295v5.601c0,1.14,0.695,1.847,1.763,1.847
			c1.067,0,1.775-0.707,1.775-1.847v-5.601h1.295v5.66C387.768,250.885,386.437,252.072,384.698,252.072z"/>
		<path fill="#5D5F63" d="M389.871,252v-8.539h1.295V252H389.871z"/>
		<path fill="#5D5F63" d="M398.604,251.196c-0.54,0.54-1.319,0.804-2.207,0.804h-2.999v-8.539h2.999
			c0.888,0,1.667,0.264,2.207,0.804c0.924,0.923,0.864,2.171,0.864,3.405C399.468,248.905,399.528,250.273,398.604,251.196z
			 M397.717,245.2c-0.36-0.396-0.84-0.576-1.451-0.576h-1.571v6.213h1.571c0.611,0,1.091-0.181,1.451-0.576
			c0.444-0.491,0.456-1.415,0.456-2.591C398.172,246.495,398.161,245.691,397.717,245.2z"/>
		<path fill="#5D5F63" d="M406.176,252l-0.587-1.715h-3.37L401.63,252h-1.379l3.13-8.539h1.043l3.13,8.539H406.176z
			 M403.933,245.392l-1.331,3.79h2.626L403.933,245.392z"/>
		<path fill="#5D5F63" d="M410.94,244.624V252h-1.295v-7.376h-2.351v-1.163h5.997v1.163H410.94z"/>
		<path fill="#5D5F63" d="M418.954,252l-0.587-1.715h-3.37L414.409,252h-1.379l3.13-8.539h1.043l3.13,8.539H418.954z
			 M416.711,245.392l-1.331,3.79h2.626L416.711,245.392z"/>
		<path fill="#5D5F63" d="M427.188,252.072c-0.888,0-1.655-0.324-2.243-0.912c-0.839-0.839-0.827-1.787-0.827-3.43
			c0-1.644-0.012-2.591,0.827-3.431c0.588-0.587,1.355-0.911,2.243-0.911c1.571,0,2.746,0.924,3.046,2.627h-1.319
			c-0.204-0.864-0.78-1.464-1.727-1.464c-0.504,0-0.959,0.192-1.259,0.516c-0.42,0.456-0.516,0.948-0.516,2.663
			s0.096,2.207,0.516,2.662c0.3,0.324,0.755,0.516,1.259,0.516c0.947,0,1.535-0.6,1.739-1.463h1.308
			C429.946,251.148,428.734,252.072,427.188,252.072z"/>
		<path fill="#5D5F63" d="M436.978,251.16c-0.587,0.588-1.343,0.912-2.254,0.912c-0.912,0-1.655-0.324-2.243-0.912
			c-0.839-0.839-0.827-1.787-0.827-3.43c0-1.644-0.012-2.591,0.827-3.431c0.588-0.587,1.332-0.911,2.243-0.911
			c0.911,0,1.667,0.324,2.254,0.911c0.84,0.84,0.816,1.787,0.816,3.431C437.794,249.373,437.818,250.321,436.978,251.16z
			 M435.995,245.08c-0.3-0.324-0.768-0.528-1.271-0.528c-0.504,0-0.972,0.204-1.271,0.528c-0.42,0.455-0.504,0.936-0.504,2.65
			s0.084,2.194,0.504,2.65c0.3,0.324,0.768,0.527,1.271,0.527c0.503,0,0.971-0.203,1.271-0.527c0.42-0.456,0.504-0.936,0.504-2.65
			S436.415,245.535,435.995,245.08z"/>
		<path fill="#5D5F63" d="M444.43,252l-1.799-3.598h-1.619V252h-1.295v-8.539h3.311c1.619,0,2.65,1.043,2.65,2.494
			c0,1.224-0.744,2.003-1.703,2.267l1.967,3.778H444.43z M442.931,244.624h-1.919v2.675h1.919c0.864,0,1.451-0.492,1.451-1.331
			C444.382,245.128,443.795,244.624,442.931,244.624z"/>
		<path fill="#5D5F63" d="M447.577,252v-8.539h5.457v1.163h-4.162v2.495h3.55v1.151h-3.55v2.566h4.162V252H447.577z"/>
	</g>
</g>
<rect x="414" y="261" fill="#5D5F63" width="1" height="35"/>
<path fill="none" stroke="#5D5F63" stroke-width="2" stroke-miterlimit="10" d="M55,93.514v46.862
	c-0.252,8.399,6.559,15.208,14.957,15.208h25"/>
<line fill="none" stroke="#5D5F63" stroke-width="2" stroke-miterlimit="10" x1="95" y1="306" x2="95" y2="354"/>
<path fill="none" stroke="#5D5F63" stroke-width="2" stroke-miterlimit="10" d="M135,93.514v46.862
	c0.166,8.399-6.646,15.208-15.043,15.208h-25"/>
<line fill="none" stroke="#5D5F63" stroke-width="2" stroke-miterlimit="10" x1="94.957" y1="151.514" x2="94.957" y2="92.514"/>
<line fill="none" stroke="#5D5F63" stroke-width="2" stroke-miterlimit="10" x1="95" y1="276" x2="94.957" y2="161.514"/>
<circle fill="#FFFFFF" stroke="#5D5F63" stroke-width="2" stroke-miterlimit="10" cx="94.957" cy="155.584" r="5.294"/>
<rect x="158" y="360" fill="#5D5F63" width="93" height="30"/>
<rect x="159" y="361" fill="#FFFFFF" width="91" height="28"/>
<g>
	<g>
		<g>
			<g enable-background="new    ">
				<path fill="#5D5F63" d="M174.668,375.69h-1.943v3.358h-1.295v-8.539h3.238c1.667,0,2.734,1.104,2.734,2.59
					C177.402,374.587,176.335,375.69,174.668,375.69z M174.596,371.673h-1.871v2.843h1.871c0.899,0,1.511-0.516,1.511-1.416
					C176.107,372.2,175.496,371.673,174.596,371.673z"/>
				<path fill="#5D5F63" d="M183.691,379.049l-1.799-3.598h-1.619v3.598h-1.295v-8.539h3.311c1.619,0,2.65,1.043,2.65,2.494
					c0,1.224-0.744,2.003-1.703,2.267l1.967,3.778H183.691z M182.192,371.673h-1.919v2.675h1.919c0.864,0,1.451-0.492,1.451-1.331
					C183.643,372.177,183.056,371.673,182.192,371.673z"/>
				<path fill="#5D5F63" d="M186.838,379.049v-8.539h1.295v8.539H186.838z"/>
				<path fill="#5D5F63" d="M193.125,379.049h-1.008l-2.806-8.539h1.343l1.967,6.212l1.967-6.212h1.367L193.125,379.049z"/>
				<path fill="#5D5F63" d="M201.617,379.049l-0.587-1.715h-3.37l-0.588,1.715h-1.379l3.13-8.539h1.043l3.13,8.539H201.617z
					 M199.374,372.44l-1.331,3.79h2.626L199.374,372.44z"/>
				<path fill="#5D5F63" d="M206.381,371.673v7.376h-1.295v-7.376h-2.351v-1.163h5.997v1.163H206.381z"/>
				<path fill="#5D5F63" d="M210.211,379.049v-8.539h5.457v1.163h-4.162v2.495h3.55v1.151h-3.55v2.566h4.162v1.163H210.211z"/>
				<path fill="#5D5F63" d="M220.327,379.049v-8.539h1.295v8.539H220.327z"/>
				<path fill="#5D5F63" d="M227.093,375.69h-1.943v3.358h-1.295v-8.539h3.238c1.667,0,2.734,1.104,2.734,2.59
					C229.827,374.587,228.76,375.69,227.093,375.69z M227.021,371.673h-1.871v2.843h1.871c0.899,0,1.511-0.516,1.511-1.416
					C228.532,372.2,227.92,371.673,227.021,371.673z"/>
			</g>
		</g>
	</g>
</g>
<rect x="49" y="276" fill="#5D5F63" width="93" height="30"/>
<rect x="50" y="277" fill="#FFFFFF" width="91" height="28"/>
<g>
	<g>
		<g>
			<g enable-background="new    ">
				<path fill="#5D5F63" d="M68.83,291.69h-1.943v3.358h-1.295v-8.539h3.238c1.667,0,2.734,1.104,2.734,2.59
					C71.564,290.587,70.497,291.69,68.83,291.69z M68.758,287.673h-1.871v2.843h1.871c0.899,0,1.511-0.516,1.511-1.416
					C70.27,288.2,69.658,287.673,68.758,287.673z"/>
				<path fill="#5D5F63" d="M76.066,295.121c-1.739,0-3.059-1.188-3.059-2.951v-5.66h1.295v5.601c0,1.14,0.696,1.847,1.763,1.847
					s1.775-0.707,1.775-1.847v-5.601h1.295v5.66C79.137,293.934,77.805,295.121,76.066,295.121z"/>
				<path fill="#5D5F63" d="M84.694,295.049H81.24v-8.539h3.322c1.583,0,2.579,0.899,2.579,2.339c0,0.923-0.576,1.583-1.151,1.811
					c0.66,0.264,1.283,0.899,1.283,1.979C87.272,294.209,86.205,295.049,84.694,295.049z M84.454,287.673h-1.919v2.446h1.919
					c0.828,0,1.391-0.432,1.391-1.223C85.845,288.104,85.282,287.673,84.454,287.673z M84.574,291.283h-2.039v2.603h2.039
					c0.899,0,1.403-0.552,1.403-1.308S85.474,291.283,84.574,291.283z"/>
				<path fill="#5D5F63" d="M89.195,295.049v-8.539h1.295v7.376h4.114v1.163H89.195z"/>
				<path fill="#5D5F63" d="M96.083,295.049v-8.539h1.295v8.539H96.083z"/>
				<path fill="#5D5F63" d="M102.37,295.121c-0.888,0-1.655-0.324-2.243-0.912c-0.839-0.839-0.827-1.787-0.827-3.43
					c0-1.644-0.012-2.591,0.827-3.431c0.588-0.587,1.355-0.911,2.243-0.911c1.571,0,2.746,0.924,3.046,2.627h-1.319
					c-0.204-0.864-0.78-1.464-1.727-1.464c-0.504,0-0.959,0.192-1.259,0.516c-0.42,0.456-0.516,0.948-0.516,2.663
					s0.096,2.207,0.516,2.662c0.3,0.324,0.755,0.516,1.259,0.516c0.947,0,1.535-0.6,1.739-1.463h1.308
					C105.128,294.197,103.917,295.121,102.37,295.121z"/>
				<path fill="#5D5F63" d="M110.027,295.049v-8.539h1.295v8.539H110.027z"/>
				<path fill="#5D5F63" d="M116.793,291.69h-1.943v3.358h-1.295v-8.539h3.238c1.667,0,2.734,1.104,2.734,2.59
					C119.528,290.587,118.46,291.69,116.793,291.69z M116.722,287.673h-1.871v2.843h1.871c0.899,0,1.511-0.516,1.511-1.416
					C118.233,288.2,117.621,287.673,116.722,287.673z"/>
			</g>
		</g>
	</g>
</g>
<g>
	<path fill="#10A6E0" d="M709.998,560c0,1.65-1.35,3-3,3H584c-1.65,0-3-1.35-3-3v-34c0-1.65,1.35-3,3-3h122.998c1.65,0,3,1.35,3,3
		V560z"/>
</g>
<rect x="583" y="564" fill="#10A6E0" width="124.998" height="4"/>
<circle fill="#FFFFFF" cx="604" cy="543" r="8"/>
<circle fill="#5D5F63" cx="604" cy="543" r="6"/>
<path fill="#FFFFFF" d="M666,543.429c0,1.42-1.01,2.571-2.429,2.571c-1.42,0-2.571-1.151-2.571-2.571s1.151-2.429,2.571-2.429
	C664.99,541,666,542.009,666,543.429z"/>
<path fill="#FFFFFF" d="M676.998,543.429c0,1.42-1.008,2.571-2.428,2.571s-2.571-1.151-2.571-2.571S673.15,541,674.57,541
	S676.998,542.009,676.998,543.429z"/>
<path fill="#FFFFFF" d="M687,543.429c0,1.42-1.01,2.571-2.43,2.571s-2.57-1.151-2.57-2.571s1.15-2.429,2.57-2.429
	S687,542.009,687,543.429z"/>
<path fill="#FFFFFF" d="M697.998,543.429c0,1.42-1.01,2.571-2.43,2.571s-2.57-1.151-2.57-2.571s1.15-2.429,2.57-2.429
	S697.998,542.009,697.998,543.429z"/>
<g>
	<path fill="#10A6E0" d="M709.998,390c0,1.65-1.35,3-3,3H584c-1.65,0-3-1.35-3-3v-34c0-1.65,1.35-3,3-3h122.998c1.65,0,3,1.35,3,3
		V390z"/>
</g>
<rect x="583" y="394" fill="#10A6E0" width="124.998" height="4"/>
<circle fill="#FFFFFF" cx="604" cy="373" r="8"/>
<circle fill="#5D5F63" cx="604" cy="373" r="6"/>
<path fill="#FFFFFF" d="M666,373.429c0,1.42-1.01,2.571-2.429,2.571c-1.42,0-2.571-1.151-2.571-2.571s1.151-2.429,2.571-2.429
	C664.99,371,666,372.009,666,373.429z"/>
<path fill="#FFFFFF" d="M676.998,373.429c0,1.42-1.008,2.571-2.428,2.571s-2.571-1.151-2.571-2.571S673.15,371,674.57,371
	S676.998,372.009,676.998,373.429z"/>
<path fill="#FFFFFF" d="M687,373.429c0,1.42-1.01,2.571-2.43,2.571s-2.57-1.151-2.57-2.571s1.15-2.429,2.57-2.429
	S687,372.009,687,373.429z"/>
<path fill="#FFFFFF" d="M697.998,373.429c0,1.42-1.01,2.571-2.43,2.571s-2.57-1.151-2.57-2.571s1.15-2.429,2.57-2.429
	S697.998,372.009,697.998,373.429z"/>
<g>
	<g enable-background="new    ">
		<path fill="#5D5F63" d="M626.301,297l-1.799-3.598h-1.619V297h-1.295v-8.539h3.311c1.619,0,2.65,1.043,2.65,2.494
			c0,1.224-0.744,2.003-1.703,2.267l1.967,3.778H626.301z M624.803,289.624h-1.92v2.675h1.92c0.863,0,1.451-0.492,1.451-1.331
			C626.254,290.128,625.666,289.624,624.803,289.624z"/>
		<path fill="#5D5F63" d="M634.461,296.16c-0.588,0.588-1.344,0.912-2.254,0.912c-0.912,0-1.656-0.324-2.243-0.912
			c-0.84-0.839-0.827-1.787-0.827-3.43c0-1.644-0.013-2.591,0.827-3.431c0.587-0.587,1.331-0.911,2.243-0.911
			c0.91,0,1.666,0.324,2.254,0.911c0.84,0.84,0.816,1.787,0.816,3.431C635.277,294.373,635.301,295.321,634.461,296.16z
			 M633.478,290.08c-0.3-0.324-0.768-0.528-1.271-0.528c-0.504,0-0.973,0.204-1.271,0.528c-0.42,0.455-0.504,0.936-0.504,2.65
			s0.084,2.194,0.504,2.65c0.299,0.324,0.768,0.527,1.271,0.527c0.503,0,0.971-0.203,1.271-0.527c0.42-0.456,0.504-0.936,0.504-2.65
			S633.897,290.535,633.478,290.08z"/>
		<path fill="#5D5F63" d="M640.127,297.072c-1.74,0-3.059-1.188-3.059-2.951v-5.66h1.295v5.601c0,1.14,0.695,1.847,1.764,1.847
			c1.066,0,1.774-0.707,1.774-1.847v-5.601h1.296v5.66C643.197,295.885,641.865,297.072,640.127,297.072z"/>
		<path fill="#5D5F63" d="M648.19,289.624V297h-1.296v-7.376h-2.35v-1.163h5.996v1.163H648.19z"/>
		<path fill="#5D5F63" d="M652.02,297v-8.539h5.457v1.163h-4.162v2.495h3.551v1.151h-3.551v2.566h4.162V297H652.02z"/>
		<path fill="#5D5F63" d="M663.969,297l-1.799-3.598h-1.619V297h-1.295v-8.539h3.311c1.619,0,2.65,1.043,2.65,2.494
			c0,1.224-0.744,2.003-1.703,2.267L665.48,297H663.969z M662.471,289.624h-1.92v2.675h1.92c0.863,0,1.451-0.492,1.451-1.331
			C663.922,290.128,663.334,289.624,662.471,289.624z"/>
	</g>
</g>
<rect x="645" y="244" fill="#5D5F63" width="1" height="35"/>
<g>
	<path fill="#10A6E0" d="M709.998,220c0,1.65-1.35,3-3,3H584c-1.65,0-3-1.35-3-3v-34c0-1.65,1.35-3,3-3h122.998c1.65,0,3,1.35,3,3
		V220z"/>
</g>
<rect x="583" y="224" fill="#10A6E0" width="124.998" height="4"/>
<circle fill="#FFFFFF" cx="604" cy="203" r="8"/>
<circle fill="#5D5F63" cx="604" cy="203" r="6"/>
<path fill="#FFFFFF" d="M666,203.429c0,1.42-1.01,2.571-2.429,2.571c-1.42,0-2.571-1.151-2.571-2.571
	c0-1.42,1.151-2.429,2.571-2.429C664.99,201,666,202.009,666,203.429z"/>
<path fill="#FFFFFF" d="M676.998,203.429c0,1.42-1.008,2.571-2.428,2.571s-2.571-1.151-2.571-2.571c0-1.42,1.151-2.429,2.571-2.429
	S676.998,202.009,676.998,203.429z"/>
<path fill="#FFFFFF" d="M687,203.429c0,1.42-1.01,2.571-2.43,2.571s-2.57-1.151-2.57-2.571c0-1.42,1.15-2.429,2.57-2.429
	S687,202.009,687,203.429z"/>
<path fill="#FFFFFF" d="M697.998,203.429c0,1.42-1.01,2.571-2.43,2.571s-2.57-1.151-2.57-2.571c0-1.42,1.15-2.429,2.57-2.429
	S697.998,202.009,697.998,203.429z"/>
<g>
	<path fill="#10A6E0" d="M117,395c0,1.65-1.35,3-3,3H76c-1.65,0-3-1.35-3-3v-8c0-1.65,1.35-3,3-3h38c1.65,0,3,1.35,3,3V395z"/>
</g>
<g>
	<path fill="#10A6E0" d="M117,363c0,1.65-1.35,3-3,3H76c-1.65,0-3-1.35-3-3v-8c0-1.65,1.35-3,3-3h38c1.65,0,3,1.35,3,3V363z"/>
</g>
<g>
	<path fill="#10A6E0" d="M94,379c0,1.65-1.35,3-3,3H76c-1.65,0-3-1.35-3-3v-8c0-1.65,1.35-3,3-3h15c1.65,0,3,1.35,3,3V379z"/>
</g>
<g>
	<path fill="#10A6E0" d="M117,379c0,1.65-1.35,3-3,3H99c-1.65,0-3-1.35-3-3v-8c0-1.65,1.35-3,3-3h15c1.65,0,3,1.35,3,3V379z"/>
</g>
<g>
	<path fill="#FFFFFF" d="M94.997,400.14c-3.006,0-5.828-1.169-7.95-3.293c-2.122-2.123-3.291-4.945-3.29-7.949
		c0-3.003,1.17-5.824,3.292-7.946l7.949-7.95l7.951,7.949c2.123,2.124,3.291,4.948,3.29,7.95c0.001,3.001-1.168,5.824-3.29,7.947
		c-2.122,2.123-4.944,3.292-7.947,3.292H94.997L94.997,400.14z"/>
</g>
<path fill="#5D5F63" d="M101.419,382.419L101.419,382.419L94.998,376l-6.419,6.419v0.001c-1.642,1.643-2.658,3.912-2.658,6.418
	c-0.002,5.016,4.062,9.079,9.077,9.077c5.015,0.002,9.079-4.062,9.077-9.077C104.077,386.332,103.061,384.062,101.419,382.419z"/>
<path fill="#FFFFFF" d="M95,392.471c-0.974,0-1.885-0.377-2.569-1.062c-0.685-0.686-1.062-1.596-1.062-2.566
	c0-0.973,0.378-1.882,1.062-2.565l2.569-2.57l2.567,2.567c0.684,0.684,1.061,1.595,1.061,2.563c0,0.975-0.377,1.885-1.061,2.569
	c-0.685,0.687-1.596,1.062-2.565,1.062H95V392.471z"/>
<g>
	<g enable-background="new    ">
		<path fill="#5D5F63" d="M65.208,459.624v2.603h3.55v1.163h-3.55V467h-1.295v-8.539h5.457v1.163H65.208z"/>
		<path fill="#5D5F63" d="M70.933,467v-8.539h1.295V467H70.933z"/>
		<path fill="#5D5F63" d="M79.174,467l-1.799-3.598h-1.619V467h-1.295v-8.539h3.311c1.619,0,2.65,1.043,2.65,2.494
			c0,1.224-0.744,2.003-1.703,2.267L80.686,467H79.174z M77.675,459.624h-1.919v2.675h1.919c0.864,0,1.451-0.492,1.451-1.331
			C79.126,460.128,78.539,459.624,77.675,459.624z"/>
		<path fill="#5D5F63" d="M82.321,467v-8.539h5.457v1.163h-4.162v2.495h3.55v1.151h-3.55v2.566h4.162V467H82.321z"/>
		<path fill="#5D5F63" d="M96.525,467h-1.127l-1.739-5.984L91.932,467h-1.127l-2.231-8.539h1.367l1.487,6.104l1.715-6.104h1.043
			l1.715,6.104l1.487-6.104h1.367L96.525,467z"/>
		<path fill="#5D5F63" d="M104.744,467l-0.587-1.715h-3.37L100.199,467h-1.379l3.13-8.539h1.043l3.13,8.539H104.744z
			 M102.501,460.392l-1.331,3.79h2.626L102.501,460.392z"/>
		<path fill="#5D5F63" d="M107.339,467v-8.539h1.295v7.376h4.114V467H107.339z"/>
		<path fill="#5D5F63" d="M114.227,467v-8.539h1.295v7.376h4.114V467H114.227z"/>
	</g>
</g>
<g>
	<g enable-background="new    ">
		<path fill="#5D5F63" d="M66.663,548.441c-1.284,0-2.207-0.3-3.022-1.128l0.863-0.852c0.624,0.624,1.308,0.815,2.183,0.815
			c1.115,0,1.763-0.479,1.763-1.307c0-0.372-0.108-0.684-0.335-0.888c-0.216-0.204-0.432-0.288-0.936-0.36l-1.007-0.144
			c-0.696-0.096-1.248-0.336-1.619-0.684c-0.42-0.396-0.624-0.936-0.624-1.631c0-1.487,1.08-2.507,2.854-2.507
			c1.127,0,1.919,0.288,2.651,0.972l-0.828,0.815c-0.528-0.504-1.14-0.66-1.859-0.66c-1.008,0-1.56,0.576-1.56,1.332
			c0,0.312,0.096,0.588,0.324,0.791c0.216,0.192,0.563,0.336,0.959,0.396l0.971,0.144c0.792,0.12,1.235,0.312,1.595,0.636
			c0.468,0.407,0.696,1.02,0.696,1.751C69.733,547.506,68.449,548.441,66.663,548.441z"/>
		<path fill="#5D5F63" d="M71.476,548.369v-8.539h5.457v1.163h-4.162v2.495h3.55v1.151h-3.55v2.566h4.162v1.163H71.476z"/>
		<path fill="#5D5F63" d="M83.425,548.369l-1.799-3.598h-1.619v3.598h-1.295v-8.539h3.311c1.619,0,2.65,1.043,2.65,2.494
			c0,1.224-0.744,2.003-1.703,2.267l1.967,3.778H83.425z M81.926,540.993h-1.919v2.675h1.919c0.864,0,1.451-0.492,1.451-1.331
			C83.377,541.497,82.79,540.993,81.926,540.993z"/>
		<path fill="#5D5F63" d="M89.33,548.369h-1.008l-2.806-8.539h1.343l1.967,6.212l1.967-6.212h1.367L89.33,548.369z"/>
		<path fill="#5D5F63" d="M93.339,548.369v-8.539h5.457v1.163h-4.162v2.495h3.55v1.151h-3.55v2.566h4.162v1.163H93.339z"/>
		<path fill="#5D5F63" d="M105.289,548.369l-1.799-3.598h-1.619v3.598h-1.295v-8.539h3.311c1.619,0,2.65,1.043,2.65,2.494
			c0,1.224-0.744,2.003-1.703,2.267l1.967,3.778H105.289z M103.79,540.993h-1.919v2.675h1.919c0.864,0,1.451-0.492,1.451-1.331
			C105.241,541.497,104.653,540.993,103.79,540.993z"/>
		<path fill="#5D5F63" d="M110.703,548.441c-1.284,0-2.207-0.3-3.022-1.128l0.863-0.852c0.624,0.624,1.308,0.815,2.183,0.815
			c1.115,0,1.763-0.479,1.763-1.307c0-0.372-0.108-0.684-0.335-0.888c-0.216-0.204-0.432-0.288-0.936-0.36l-1.007-0.144
			c-0.696-0.096-1.248-0.336-1.619-0.684c-0.42-0.396-0.624-0.936-0.624-1.631c0-1.487,1.08-2.507,2.854-2.507
			c1.127,0,1.919,0.288,2.651,0.972l-0.828,0.815c-0.528-0.504-1.14-0.66-1.859-0.66c-1.008,0-1.56,0.576-1.56,1.332
			c0,0.312,0.096,0.588,0.324,0.791c0.216,0.192,0.563,0.336,0.959,0.396l0.971,0.144c0.792,0.12,1.235,0.312,1.595,0.636
			c0.468,0.407,0.696,1.02,0.696,1.751C113.773,547.506,112.489,548.441,110.703,548.441z"/>
	</g>
</g>
<rect x="94" y="414" fill="#5D5F63" width="1" height="35"/>
<line fill="none" stroke="#10A6E0" stroke-width="2" stroke-miterlimit="10" x1="357" y1="347.998" x2="313" y2="347.998"/>
<line fill="none" stroke="#10A6E0" stroke-width="2" stroke-miterlimit="10" x1="357" y1="405" x2="313" y2="405"/>
<line fill="none" stroke="#10A6E0" stroke-width="2.1109" stroke-miterlimit="10" x1="292" y1="374.998" x2="251" y2="374.998"/>
<line fill="none" stroke="#15A5DF" stroke-width="2.1109" stroke-miterlimit="10" x1="158" y1="374.998" x2="117" y2="374.998"/>
<path fill="none" stroke="#10A6E0" stroke-width="2" stroke-miterlimit="10" d="M313,347.998c-8.399,0-15.208,6.811-15.208,15.209
	v26.584c0,8.398,6.809,15.209,15.208,15.209"/>
<circle fill="#FFFFFF" stroke="#10A6E0" stroke-width="2" stroke-miterlimit="10" cx="298.099" cy="375.293" r="5.294"/>
<line fill="none" stroke="#10A6E0" stroke-width="2" stroke-miterlimit="10" x1="512.805" y1="375" x2="479" y2="375"/>
<line fill="none" stroke="#10A6E0" stroke-width="2" stroke-miterlimit="10" x1="513.987" y1="246" x2="513.987" y2="500"/>
<line fill="none" stroke="#10A6E0" stroke-width="2" stroke-miterlimit="10" x1="529.208" y1="543" x2="581" y2="542.998"/>
<line fill="none" stroke="#10A6E0" stroke-width="2" stroke-miterlimit="10" x1="521" y1="375.002" x2="581" y2="375"/>
<path fill="none" stroke="#10A6E0" stroke-width="2" stroke-miterlimit="10" d="M514,500.207v27.584
	c0,8.398,6.809,15.209,15.208,15.209"/>
<line fill="none" stroke="#10A6E0" stroke-width="2" stroke-miterlimit="10" x1="529.208" y1="203" x2="582" y2="203"/>
<line fill="none" stroke="#10A6E0" stroke-width="2" stroke-miterlimit="10" x1="709.208" y1="543" x2="799" y2="542.998"/>
<line fill="none" stroke="#10A6E0" stroke-width="2" stroke-miterlimit="10" x1="707" y1="375.002" x2="799" y2="375"/>
<line fill="none" stroke="#10A6E0" stroke-width="2" stroke-miterlimit="10" x1="709.208" y1="203" x2="800" y2="203"/>
<path fill="none" stroke="#10A6E0" stroke-width="2" stroke-miterlimit="10" d="M529.208,203c-8.399,0-15.208,6.811-15.208,15.209
	v27.584"/>
<circle fill="#FFFFFF" stroke="#10A6E0" stroke-width="2" stroke-miterlimit="10" cx="514.294" cy="375.295" r="5.294"/>
<circle fill="#10A6E0" cx="414" cy="375" r="66"/>
<g>
	<circle fill="#FFFFFF" cx="414" cy="375" r="40.5"/>
	<g>
		
			<circle fill="none" stroke="#FFFFFF" stroke-width="10" stroke-miterlimit="10" stroke-dasharray="1.0028,3.0083" cx="414" cy="375" r="53"/>
	</g>
	<g>
		<g>
			<g>
				<g>
					<path fill="#10A6E0" d="M423.034,362h-17.139c-7.933,0-10.896,2.307-10.896,10.072V385h4.463v-9.789h10.012v-3.52h-10.012
						c0-5.036,1.394-6.173,6.608-6.173h7.728V385h9.454c2.14,0,4.427,0,6.429-0.894c4.355-1.898,5.318-6.481,5.318-10.688
						C435,365.277,431.286,362,423.034,362z M423.427,381.484h-5.197V365.52h5.094c5.462,0,6.854,3.31,6.854,8.135
						C430.178,378.348,428.748,381.484,423.427,381.484z M402.383,382.474c0-0.198-0.166-0.365-0.398-0.365h-0.465v1.197h0.228
						v-0.473h0.159l0.254,0.473h0.255l-0.274-0.505C402.275,382.753,402.383,382.643,402.383,382.474z M401.955,382.654h-0.208
						v-0.357h0.208c0.124,0,0.205,0.08,0.205,0.177C402.16,382.576,402.079,382.654,401.955,382.654z M401.914,381.517
						c-0.68,0-1.235,0.531-1.235,1.192c0,0.656,0.556,1.191,1.235,1.191c0.683,0,1.233-0.535,1.233-1.191
						C403.147,382.048,402.597,381.517,401.914,381.517z M401.914,383.683c-0.556,0-0.99-0.431-0.99-0.974
						c0-0.544,0.435-0.973,0.99-0.973c0.553,0,0.986,0.429,0.986,0.973C402.9,383.252,402.467,383.683,401.914,383.683z"/>
				</g>
			</g>
		</g>
	</g>
</g>
<polygon fill="#10A6E0" points="403.817,332.666 424.183,332.666 414,342.849 "/>
<polygon fill="#10A6E0" points="403.817,417.334 424.183,417.334 414,407.151 "/>
<polygon fill="#10A6E0" points="371.667,385.181 371.667,364.815 381.85,374.998 "/>
<polygon fill="#10A6E0" points="456.335,385.181 456.335,364.815 446.152,374.998 "/>
<path fill="none" stroke="#10A6E0" stroke-width="2" stroke-miterlimit="10" d="M414,419.135v110.657
	c0,8.399-6.811,15.208-15.209,15.208H215"/>
<g>
	<path fill="#5D5F63" d="M891,556.598c0,0,0-8.394,0-11.598v-43.715c0-2.907-1.898-5.285-4.807-5.285h-83.078
		c-2.909,0-5.115,2.378-5.115,5.285V545c0,3.204,0,11.598,0,11.598l-18,3.631v5.47c0,0,0.209,2.303,3.119,2.303h122.744
		c2.909,0,3.12-2.303,3.12-2.303v-5.47L891,556.598z"/>
	<g>
		<rect x="805" y="503" fill="#FFFFFF" width="77.863" height="50"/>
	</g>
</g>
<g>
	<path fill="#5D5F63" d="M891,386.598c0,0,0-8.394,0-11.598v-43.715c0-2.907-1.898-5.285-4.807-5.285h-83.078
		c-2.909,0-5.115,2.378-5.115,5.285V375c0,3.204,0,11.598,0,11.598l-18,3.63v5.471c0,0,0.209,2.303,3.119,2.303h122.744
		c2.909,0,3.12-2.303,3.12-2.303v-5.471L891,386.598z"/>
	<g>
		<rect x="805" y="333" fill="#FFFFFF" width="77.863" height="50"/>
	</g>
</g>
<g>
	<g enable-background="new    ">
		<path fill="#5D5F63" d="M830.827,297.072c-1.739,0-3.059-1.188-3.059-2.951v-5.66h1.296v5.601c0,1.14,0.695,1.847,1.763,1.847
			s1.774-0.707,1.774-1.847v-5.601h1.296v5.66C833.897,295.885,832.566,297.072,830.827,297.072z"/>
		<path fill="#5D5F63" d="M838.268,297.072c-1.284,0-2.207-0.3-3.023-1.128l0.863-0.852c0.625,0.624,1.309,0.815,2.184,0.815
			c1.115,0,1.763-0.479,1.763-1.307c0-0.372-0.108-0.684-0.335-0.888c-0.217-0.204-0.433-0.288-0.936-0.36l-1.008-0.144
			c-0.695-0.096-1.248-0.336-1.619-0.684c-0.42-0.396-0.624-0.936-0.624-1.631c0-1.487,1.079-2.507,2.854-2.507
			c1.127,0,1.919,0.288,2.65,0.972l-0.827,0.815c-0.528-0.504-1.14-0.66-1.858-0.66c-1.008,0-1.561,0.576-1.561,1.332
			c0,0.312,0.097,0.588,0.324,0.791c0.217,0.192,0.564,0.336,0.96,0.396l0.972,0.144c0.791,0.12,1.234,0.312,1.595,0.636
			c0.468,0.407,0.696,1.02,0.696,1.751C841.338,296.137,840.054,297.072,838.268,297.072z"/>
		<path fill="#5D5F63" d="M843.08,297v-8.539h5.457v1.163h-4.162v2.495h3.551v1.151h-3.551v2.566h4.162V297H843.08z"/>
		<path fill="#5D5F63" d="M855.029,297l-1.799-3.598h-1.619V297h-1.295v-8.539h3.311c1.619,0,2.65,1.043,2.65,2.494
			c0,1.224-0.744,2.003-1.703,2.267l1.967,3.778H855.029z M853.531,289.624h-1.92v2.675h1.92c0.863,0,1.451-0.492,1.451-1.331
			C854.982,290.128,854.395,289.624,853.531,289.624z"/>
	</g>
</g>
<rect x="843" y="244" fill="#5D5F63" width="1" height="35"/>
<g>
	<path fill="#5D5F63" d="M891,216.598c0,0,0-8.394,0-11.598v-43.715c0-2.907-1.898-5.285-4.807-5.285h-83.078
		c-2.909,0-5.115,2.378-5.115,5.285V205c0,3.204,0,11.598,0,11.598l-18,3.63v5.47c0,0,0.209,2.303,3.119,2.303h122.744
		c2.909,0,3.12-2.303,3.12-2.303v-5.47L891,216.598z"/>
	<g>
		<rect x="805" y="163" fill="#FFFFFF" width="77.863" height="50"/>
	</g>
</g>
<g>
	<g>
		<path fill="#10A6E0" d="M215,573c0,1.65-1.35,3-3,3h-29c-1.65,0-3-1.35-3-3v-58c0-1.65,1.35-3,3-3h29c1.65,0,3,1.35,3,3V573z"/>
	</g>
	<rect x="186" y="525" fill="#FFFFFF" width="23" height="3"/>
	<rect x="186" y="531" fill="#FFFFFF" width="23" height="3"/>
	<rect x="186" y="537" fill="#FFFFFF" width="23" height="3"/>
	<g>
		<rect x="186" y="519" fill="#FFFFFF" width="23" height="3"/>
		<rect x="188" y="520" fill="#10A6E0" width="2" height="1"/>
		<rect x="205" y="520" fill="#10A6E0" width="2" height="1"/>
		<rect x="188" y="526" fill="#10A6E0" width="2" height="1"/>
		<rect x="205" y="526" fill="#10A6E0" width="2" height="1"/>
		<rect x="188" y="532" fill="#10A6E0" width="2" height="1"/>
		<rect x="205" y="532" fill="#10A6E0" width="2" height="1"/>
		<rect x="188" y="538" fill="#10A6E0" width="2" height="1"/>
		<rect x="205" y="538" fill="#10A6E0" width="2" height="1"/>
		<rect x="186" y="543" fill="#FFFFFF" width="23" height="3"/>
		<rect x="188" y="544" fill="#10A6E0" width="2" height="1"/>
		<rect x="205" y="544" fill="#10A6E0" width="2" height="1"/>
	</g>
</g>
<rect x="122" y="544" fill="#5D5F63" width="35" height="1"/>
<circle fill="#10A6E0" cx="704.562" cy="339.999" r="2"/>
<g>
	<path fill="#10A6E0" d="M691.081,329c3.619-3.14,8.327-5.055,13.481-5.055c5.156,0,9.864,1.915,13.482,5.055l2.081-2.082
		c-4.156-3.67-9.596-5.918-15.563-5.918c-5.967,0-11.406,2.248-15.562,5.918L691.081,329z"/>
</g>
<g>
	<path fill="#10A6E0" d="M695.66,333.031c2.428-1.988,5.526-3.187,8.902-3.187c3.375,0,6.477,1.197,8.904,3.187l1.993-1.994
		c-2.943-2.494-6.745-4.006-10.897-4.006c-4.15,0-7.952,1.512-10.896,4.006L695.66,333.031z"/>
</g>
<g>
	<path fill="#10A6E0" d="M699.653,337.105c1.386-0.994,3.078-1.588,4.909-1.588c1.832,0,3.525,0.594,4.911,1.588l1.723-1.723
		c-1.837-1.422-4.134-2.277-6.634-2.277c-2.498,0-4.795,0.855-6.632,2.277L699.653,337.105z"/>
</g>
<circle fill="#10A6E0" cx="366" cy="314.255" r="2"/>
<g>
	<path fill="#10A6E0" d="M348.688,316.011c0.339-4.778,2.314-9.462,5.96-13.106c3.646-3.646,8.329-5.621,13.107-5.959V294
		c-5.535,0.344-10.971,2.601-15.19,6.82c-4.219,4.219-6.477,9.654-6.819,15.189L348.688,316.011L348.688,316.011z"/>
</g>
<g>
	<path fill="#10A6E0" d="M354.777,315.623c0.311-3.122,1.656-6.16,4.043-8.547c2.387-2.387,5.426-3.733,8.549-4.045v-2.819
		c-3.846,0.317-7.604,1.938-10.539,4.873c-2.936,2.935-4.555,6.692-4.873,10.538H354.777L354.777,315.623z"/>
</g>
<g>
	<path fill="#10A6E0" d="M360.481,315.68c0.277-1.682,1.055-3.298,2.351-4.594c1.295-1.295,2.912-2.073,4.594-2.351l0.001-2.436
		c-2.305,0.294-4.534,1.312-6.302,3.079c-1.768,1.768-2.784,3.996-3.078,6.301H360.481z"/>
</g>
<rect x="834" y="561" fill="#FFFFFF" width="19" height="2"/>
<rect x="834" y="391" fill="#FFFFFF" width="19" height="2"/>
<rect x="834" y="221" fill="#FFFFFF" width="19" height="2"/>
</svg>
