<?xml version="1.0" encoding="utf-8"?>
<!-- Generator: Adobe Illustrator 16.0.0, SVG Export Plug-In . SVG Version: 6.00 Build 0)  -->
<!DOCTYPE svg PUBLIC "-//W3C//DTD SVG 1.1//EN" "http://www.w3.org/Graphics/SVG/1.1/DTD/svg11.dtd">
<svg version="1.1" id="Layer_1" xmlns="http://www.w3.org/2000/svg" xmlns:xlink="http://www.w3.org/1999/xlink" x="0px" y="0px"
	 width="988px" height="537px" viewBox="-109.714 -99.509 988 537" enable-background="new -109.714 -99.509 988 537"
	 xml:space="preserve">
<g>
	<path fill="#6B727D" d="M608.624,73.18h-77.937c-5.365,0-9.755,4.39-9.755,9.754V190.23c0,5.365,4.39,9.754,9.755,9.754h77.937
		c5.365,0,9.754-4.39,9.754-9.754V82.934C618.378,77.569,613.988,73.18,608.624,73.18z M574.533,196.326h-9.754v-2.439h9.754
		V196.326z M608.624,190.212c-0.005,0.006-0.012,0.013-0.018,0.018h-77.902c-0.006-0.005-0.012-0.012-0.019-0.018V82.951
		c0.006-0.007,0.013-0.014,0.019-0.019h77.902c0.006,0.005,0.013,0.012,0.018,0.019V190.212z"/>
	<g>
		<g>
			<g>
				<rect x="541.182" y="110.129" fill="#6B727D" width="32.475" height="3.308"/>
			</g>
		</g>
		<g>
			<g>
				<rect x="576.977" y="110.129" fill="#6B727D" width="21.152" height="3.308"/>
			</g>
		</g>
		<g>
			<g>
				<rect x="537.928" y="116.744" fill="#6B727D" width="63.455" height="3.308"/>
			</g>
		</g>
		<g>
			<g>
				<rect x="541.182" y="123.359" fill="#6B727D" width="16.271" height="3.309"/>
			</g>
		</g>
		<g>
			<g>
				<rect x="560.707" y="123.359" fill="#6B727D" width="6.508" height="3.309"/>
			</g>
		</g>
		<g>
			<g>
				<rect x="570.469" y="123.359" fill="#6B727D" width="27.66" height="3.309"/>
			</g>
		</g>
	</g>
	<path fill="#6B727D" d="M537.169,89.339v13.23h64.973v-13.23H537.169z M546.905,97.608h-6.499V94.3h6.499V97.608z M559.902,97.608
		h-6.498V94.3h6.498V97.608z M572.899,97.608H566.4V94.3h6.498L572.899,97.608L572.899,97.608z M585.896,97.608h-6.498V94.3h6.498
		V97.608z M598.892,97.608h-6.497V94.3h6.497V97.608z"/>
	<g>
		<g>
			<g>
				<g>
					<rect x="537.681" y="139.251" fill="#6B727D" width="26.461" height="26.461"/>
				</g>
			</g>
			<g>
				<g>
					<rect x="537.681" y="170.674" fill="#6B727D" width="26.461" height="3.308"/>
				</g>
			</g>
			<g>
				<g>
					<rect x="537.681" y="177.289" fill="#6B727D" width="26.461" height="3.308"/>
				</g>
			</g>
		</g>
		<g>
			<g>
				<g>
					<rect x="575.168" y="139.251" fill="#6B727D" width="26.461" height="26.461"/>
				</g>
			</g>
			<g>
				<g>
					<rect x="575.168" y="170.674" fill="#6B727D" width="26.461" height="3.308"/>
				</g>
			</g>
			<g>
				<g>
					<rect x="575.168" y="177.289" fill="#6B727D" width="19.846" height="3.308"/>
				</g>
			</g>
		</g>
	</g>
</g>
<g>
	<path fill="#6B727D" d="M683.674,99.719h-41.308c-3.244,0-5.898,2.655-5.898,5.898v5.897v70.775v11.796
		c0,3.244,2.654,5.897,5.898,5.897h41.308c3.243,0,5.898-2.653,5.898-5.897V182.29v-70.775v-5.897
		C689.572,102.374,686.917,99.719,683.674,99.719z M668.906,190.952H657.11v-2.949h11.796V190.952z M686.623,114.464v64.877h-47.206
		v-64.877H686.623z"/>
	<g>
		<g>
			<g>
				<g>
					<rect x="642.689" y="154.036" fill="#6B727D" width="16.825" height="16.825"/>
				</g>
			</g>
			<g>
				<g>
					<rect x="642.689" y="174.016" fill="#6B727D" width="16.825" height="2.104"/>
				</g>
			</g>
		</g>
		<g>
			<g>
				<g>
					<rect x="666.525" y="154.036" fill="#6B727D" width="16.825" height="16.825"/>
				</g>
			</g>
			<g>
				<g>
					<rect x="666.525" y="174.016" fill="#6B727D" width="16.825" height="2.104"/>
				</g>
			</g>
		</g>
	</g>
	<path fill="#6B727D" d="M641.763,118.079v8h42.515v-8H641.763z M648.134,123.079h-4.252v-2h4.252V123.079z M656.638,123.079h-4.252
		v-2h4.252V123.079z M665.142,123.079h-4.252v-2h4.252V123.079z M673.646,123.079h-4.253v-2h4.253V123.079z M682.151,123.079h-4.252
		v-2h4.252V123.079z"/>
	<g>
		<g>
			<g>
				<rect x="643.895" y="129.906" fill="#6B727D" width="21.812" height="4"/>
			</g>
		</g>
		<g>
			<g>
				<rect x="667.938" y="129.906" fill="#6B727D" width="14.207" height="4"/>
			</g>
		</g>
		<g>
			<g>
				<rect x="641.709" y="137.906" fill="#6B727D" width="42.621" height="4"/>
			</g>
		</g>
		<g>
			<g>
				<rect x="643.895" y="145.906" fill="#6B727D" width="10.929" height="4"/>
			</g>
		</g>
		<g>
			<g>
				<rect x="657.009" y="145.906" fill="#6B727D" width="4.371" height="4"/>
			</g>
		</g>
		<g>
			<g>
				<rect x="663.566" y="145.906" fill="#6B727D" width="18.577" height="4"/>
			</g>
		</g>
	</g>
</g>
<g>
	<g>
		<g>
			<g>
				<g>
					<rect x="58.441" y="44.037" fill="#6B727D" width="79.834" height="4"/>
				</g>
			</g>
			<g>
				<g>
					<rect x="146.441" y="44.037" fill="#6B727D" width="52" height="4"/>
				</g>
			</g>
			<g>
				<g>
					<rect x="50.441" y="52.037" fill="#6B727D" width="156" height="4"/>
				</g>
			</g>
			<g>
				<g>
					<rect x="58.441" y="60.037" fill="#6B727D" width="40" height="4"/>
				</g>
			</g>
			<g>
				<g>
					<rect x="106.441" y="60.037" fill="#6B727D" width="16" height="4"/>
				</g>
			</g>
			<g>
				<g>
					<rect x="130.441" y="60.037" fill="#6B727D" width="68" height="4"/>
				</g>
			</g>
		</g>
		<path fill="#6B727D" d="M25.273,17.195v16h206.336v-16H25.273z M56.192,27.195H35.555v-4h20.638L56.192,27.195L56.192,27.195z
			 M97.466,27.195H76.829v-4h20.637V27.195z M138.741,27.195h-20.637v-4h20.637V27.195z M180.015,27.195h-20.637v-4h20.637V27.195z
			 M221.289,27.195h-20.637v-4h20.637V27.195z"/>
		<g>
			<g>
				<g>
					<g>
						<rect x="44.441" y="74.898" fill="#6B727D" width="32" height="32"/>
					</g>
				</g>
				<g>
					<g>
						<rect x="44.441" y="112.898" fill="#6B727D" width="32" height="4"/>
					</g>
				</g>
				<g>
					<g>
						<rect x="44.441" y="120.898" fill="#6B727D" width="32" height="4"/>
					</g>
				</g>
			</g>
			<g>
				<g>
					<g>
						<rect x="89.774" y="74.898" fill="#6B727D" width="32" height="32"/>
					</g>
				</g>
				<g>
					<g>
						<rect x="89.774" y="112.898" fill="#6B727D" width="32" height="4"/>
					</g>
				</g>
				<g>
					<g>
						<rect x="89.774" y="120.898" fill="#6B727D" width="24" height="4"/>
					</g>
				</g>
			</g>
			<g>
				<g>
					<g>
						<rect x="135.107" y="74.898" fill="#6B727D" width="32" height="32"/>
					</g>
				</g>
				<g>
					<g>
						<rect x="135.107" y="112.898" fill="#6B727D" width="24" height="4"/>
					</g>
				</g>
				<g>
					<g>
						<rect x="135.107" y="120.898" fill="#6B727D" width="32" height="4"/>
					</g>
				</g>
			</g>
			<g>
				<g>
					<g>
						<rect x="180.441" y="74.898" fill="#6B727D" width="32" height="32"/>
					</g>
				</g>
				<g>
					<g>
						<rect x="180.441" y="112.898" fill="#6B727D" width="32" height="4"/>
					</g>
				</g>
				<g>
					<g>
						<rect x="180.441" y="120.898" fill="#6B727D" width="15.916" height="4"/>
					</g>
				</g>
			</g>
		</g>
	</g>
	<path fill="#6B727D" d="M249.036,0H7.547C3.396,0,0,3.396,0,7.547v135.838v22.64c0,4.151,3.396,7.548,7.547,7.548h90.559v18.865
		h-22.64v7.547h105.652v-7.547h-22.64V173.57h90.559c4.151,0,7.547-3.396,7.547-7.547v-22.64V7.547
		C256.583,3.396,253.186,0,249.036,0z M116.971,162.251v-7.547h22.64v7.547H116.971z M249.036,7.56v128.277H7.547V7.56V7.547H7.56
		h241.462h0.014V7.56z"/>
</g>
<g>
	<g>
		<g>
			<g>
				<g>
					<path fill="#6B727D" d="M473.727,68.301c0.884,0,1.602,0.718,1.602,1.601v105.667H296.014V69.902
						c0-0.883,0.718-1.601,1.601-1.601H473.727L473.727,68.301z M473.727,61.897H297.615c-4.421,0-8.005,3.584-8.005,8.005v112.071
						H481.73V69.902C481.732,65.482,478.148,61.897,473.727,61.897L473.727,61.897z"/>
				</g>
			</g>
		</g>
		<path fill="#6B727D" d="M409.726,183.973c0,4.421-3.583,8.005-8.005,8.005h-32.099c-4.421,0-8.005-3.584-8.005-8.005H265.58
			c0,8.842,7.168,16.01,16.01,16.01c0.011,0,0.021-0.001,0.031-0.001v0.001h207.864c8.842,0,16.01-7.168,16.01-16.01H409.726z"/>
	</g>
	<g>
		<g>
			<g>
				<g>
					<rect x="330.892" y="98.861" fill="#6B727D" width="62.322" height="3.123"/>
				</g>
			</g>
			<g>
				<g>
					<rect x="399.589" y="98.861" fill="#6B727D" width="40.593" height="3.123"/>
				</g>
			</g>
			<g>
				<g>
					<rect x="324.647" y="105.106" fill="#6B727D" width="121.779" height="3.123"/>
				</g>
			</g>
			<g>
				<g>
					<rect x="330.892" y="111.351" fill="#6B727D" width="31.227" height="3.123"/>
				</g>
			</g>
			<g>
				<g>
					<rect x="368.363" y="111.351" fill="#6B727D" width="12.489" height="3.123"/>
				</g>
			</g>
			<g>
				<g>
					<rect x="387.098" y="111.351" fill="#6B727D" width="53.084" height="3.123"/>
				</g>
			</g>
		</g>
		<path fill="#6B727D" d="M305,77.907v12.489h161.075V77.907H305z M329.137,85.713h-16.11V82.59h16.11V85.713z M361.357,85.713
			h-16.11V82.59h16.11V85.713z M393.578,85.713h-16.11V82.59h16.11V85.713z M425.798,85.713h-16.11V82.59h16.11V85.713z
			 M458.018,85.713h-16.109V82.59h16.109V85.713z"/>
		<g>
			<g>
				<g>
					<g>
						<rect x="319.963" y="122.952" fill="#6B727D" width="24.981" height="24.98"/>
					</g>
				</g>
				<g>
					<g>
						<rect x="319.963" y="152.616" fill="#6B727D" width="24.981" height="3.123"/>
					</g>
				</g>
				<g>
					<g>
						<rect x="319.963" y="158.861" fill="#6B727D" width="24.981" height="3.123"/>
					</g>
				</g>
			</g>
			<g>
				<g>
					<g>
						<rect x="355.352" y="122.952" fill="#6B727D" width="24.981" height="24.98"/>
					</g>
				</g>
				<g>
					<g>
						<rect x="355.352" y="152.616" fill="#6B727D" width="24.981" height="3.123"/>
					</g>
				</g>
				<g>
					<g>
						<rect x="355.352" y="158.861" fill="#6B727D" width="18.735" height="3.123"/>
					</g>
				</g>
			</g>
			<g>
				<g>
					<g>
						<rect x="390.741" y="122.952" fill="#6B727D" width="24.98" height="24.98"/>
					</g>
				</g>
				<g>
					<g>
						<rect x="390.741" y="152.616" fill="#6B727D" width="18.734" height="3.123"/>
					</g>
				</g>
				<g>
					<g>
						<rect x="390.741" y="158.861" fill="#6B727D" width="24.98" height="3.123"/>
					</g>
				</g>
			</g>
			<g>
				<g>
					<g>
						<rect x="426.131" y="122.952" fill="#6B727D" width="24.981" height="24.98"/>
					</g>
				</g>
				<g>
					<g>
						<rect x="426.131" y="152.616" fill="#6B727D" width="24.981" height="3.123"/>
					</g>
				</g>
				<g>
					<g>
						<rect x="426.131" y="158.861" fill="#6B727D" width="12.425" height="3.123"/>
					</g>
				</g>
			</g>
		</g>
	</g>
</g>
<path fill="#3F7490" d="M-44.714-84.509h1c0.551,0,1,0.449,1,1v2.051c-0.329-0.033-0.662-0.051-1-0.051h-1V-84.509z M-44.714-17.509
	h1c0.338,0,0.671-0.018,1-0.051v2.051c0,0.552-0.449,1-1,1h-1V-17.509z M-78.714-14.509h-1c-0.551,0-1-0.448-1-1v-2.051
	c0.329,0.033,0.662,0.051,1,0.051h1V-14.509z M-78.714-81.509h-1c-0.338,0-0.671,0.018-1,0.051v-2.051c0-0.551,0.449-1,1-1h1
	V-81.509z"/>
<path fill="#CCD0D2" d="M-41.714-84.509c0.551,0,1,0.449,1,1v68c0,0.552-0.449,1-1,1h-36c-0.551,0-1-0.448-1-1v-68
	c0-0.551,0.449-1,1-1H-41.714 M-41.714-86.509h-36c-1.656,0-3,1.343-3,3v68c0,1.657,1.344,3,3,3h36c1.656,0,3-1.343,3-3v-68
	C-38.714-85.166-40.058-86.509-41.714-86.509z"/>
<path fill="#6B727D" d="M-42.714-96.54c-5.309-1.919-11.029-2.969-17-2.969c-5.969,0-11.692,1.05-17,2.969v94.062
	c5.308,1.919,11.031,2.969,17,2.969c5.971,0,11.691-1.05,17-2.969V-96.54z"/>
<path fill="#EDEDED" d="M-77.714-81.509h36c5.523,0,10,4.478,10,10v44c0,5.523-4.477,10-10,10h-36c-5.523,0-10-4.477-10-10v-44
	C-87.714-77.031-83.237-81.509-77.714-81.509z"/>
<path fill="#E1E1E1" d="M-77.714-81.509c-5.523,0-10,4.478-10,10v44c0,5.523,4.477,10,10,10h18v-64H-77.714z"/>
<path fill="#6B727D" d="M-77.714-78.509h36c3.866,0,7,3.134,7,7v44c0,3.866-3.134,7-7,7h-36c-3.866,0-7-3.134-7-7v-44
	C-84.714-75.375-81.58-78.509-77.714-78.509z"/>
<circle fill="#EDEDED" cx="-59.714" cy="-48.509" r="6"/>
<circle fill="#EDEDED" cx="-47.214" cy="-56.009" r="4.5"/>
<circle fill="#EDEDED" cx="-72.214" cy="-56.009" r="4.5"/>
<circle fill="#EDEDED" cx="-59.714" cy="-62.509" r="5"/>
<circle fill="#EDEDED" cx="-47.214" cy="-43.009" r="4.5"/>
<circle fill="#EDEDED" cx="-72.214" cy="-43.009" r="4.5"/>
<circle fill="#EDEDED" cx="-59.714" cy="-34.509" r="5"/>
<circle fill="#EDEDED" cx="-48.714" cy="-66.509" r="3"/>
<circle fill="#EDEDED" cx="-70.714" cy="-66.509" r="3"/>
<circle fill="#EDEDED" cx="-48.714" cy="-32.509" r="3"/>
<circle fill="#EDEDED" cx="-70.714" cy="-32.509" r="3"/>
</svg>
