<?xml version="1.0" encoding="utf-8"?>
<!-- Generator: Adobe Illustrator 18.0.0, SVG Export Plug-In . SVG Version: 6.00 Build 0)  -->
<!DOCTYPE svg PUBLIC "-//W3C//DTD SVG 1.0//EN" "http://www.w3.org/TR/2001/REC-SVG-20010904/DTD/svg10.dtd">
<svg version="1.0" id="Layer_1" xmlns="http://www.w3.org/2000/svg" xmlns:xlink="http://www.w3.org/1999/xlink" x="0px" y="0px"
	 width="52px" height="52px" viewBox="0 0 52 52" enable-background="new 0 0 52 52" xml:space="preserve">
<g>
	<path fill="#535A58" d="M39.7,23H39v-8.3c0-2.3-1.5-4.2-3.5-5C35,6.1,33.2,0,31.1,0C27,0,23,0,18.9,0c-2.1,0-3.9,6.1-4.4,9.7
		c-2,0.8-3.5,2.7-3.5,5v22.7c0,2.3,1.4,4.2,3.5,5c0.5,3.5,2.3,9.7,4.4,9.7c4.1,0,8.1,0,12.2,0c2.1,0,3.9-6.2,4.4-9.7
		c2-0.8,3.5-2.7,3.5-5V29h0.7c0.7,0,1.3-0.6,1.3-1.3v-3.3C41,23.6,40.4,23,39.7,23z M37.4,38.1c0,1.5-1.2,2.7-2.7,2.7H15.3
		c-1.5,0-2.7-1.2-2.7-2.7V13.9c0-1.5,1.2-2.7,2.7-2.7h19.5c1.5,0,2.7,1.2,2.7,2.7V38.1z"/>
	<path fill="#535A58" d="M28.6,26c0-2-1.6-3.6-3.6-3.6c-2,0-3.6,1.6-3.6,3.6c0,2,1.6,3.6,3.6,3.6C27,29.6,28.6,28,28.6,26z"/>
	<circle fill="#535A58" cx="32.9" cy="26" r="2.8"/>
	<circle fill="#535A58" cx="29" cy="19.2" r="2.8"/>
	<circle fill="#535A58" cx="21.1" cy="19.2" r="2.8"/>
	<circle fill="#535A58" cx="17.1" cy="26" r="2.8"/>
	<circle fill="#535A58" cx="21.1" cy="32.8" r="2.8"/>
	<circle fill="#535A58" cx="29" cy="32.8" r="2.8"/>
</g>
</svg>
