<?xml version="1.0" encoding="utf-8"?>
<!-- Generator: Adobe Illustrator 15.0.2, SVG Export Plug-In . SVG Version: 6.00 Build 0)  -->
<!DOCTYPE svg PUBLIC "-//W3C//DTD SVG 1.1//EN" "http://www.w3.org/Graphics/SVG/1.1/DTD/svg11.dtd">
<svg version="1.1" id="illustration" xmlns="http://www.w3.org/2000/svg" xmlns:xlink="http://www.w3.org/1999/xlink" x="0px"
	 y="0px" width="2289.734px" height="1466.853px" viewBox="0 0 2289.734 1466.853" enable-background="new 0 0 2289.734 1466.853"
	 xml:space="preserve">
<g opacity="0.5">
	<g>
		<g>
			<path fill="#36687D" d="M2289.734,522.853c0-17.673-14.328-32-32-32h-256c-17.674,0-32,14.327-32,32v352
				c0,17.673,14.326,32,32,32h256c17.672,0,32-14.327,32-32V522.853z"/>
		</g>
	</g>
	<g>
		<g>
			<path fill="#36687D" d="M1622.328,1259.853h-26.975h-8h-283.619v-0.698l-45.666,11.398l-19.705,4.917l19.65,4.951l45.576,11.432
				h283.764h8h26.975c8.836,0,16-7.163,16-16S1631.164,1259.853,1622.328,1259.853z"/>
		</g>
	</g>
	<g>
		<g>
			<polygon fill="#36687D" points="689.734,842.966 689.734,810.853 273.734,810.853 273.734,842.966 273.734,1130.853 
				689.734,1130.853 			"/>
		</g>
	</g>
	<g>
		<g>
			<path fill="#36687D" d="M1938.117,939.47c-0.168,0-0.383,0.006-0.383,0.006v-224.57v-32.053h-416v32.053v415.947h280.271
				c19.609,56,73.086,96.591,135.994,96.591c79.529,0,144.059-64.458,144.059-143.987
				C2082.059,1003.929,2017.646,939.47,1938.117,939.47z"/>
		</g>
	</g>
	<g>
		<g>
			<polygon fill="#36687D" points="1919.734,1275.853 1901.734,1275.853 1901.734,1467.853 1973.734,1467.853 1973.734,1275.853 
				1955.734,1275.853 1955.734,1227.853 1938,1227.853 1919.734,1227.853 			"/>
		</g>
	</g>
	<g>
		<g>
			<path fill="#36687D" d="M1520.992,1226.853c35.346,0,64-29,64-64h-95.258V830.997l0.496-0.062l-0.496-3.969V714.905
				c0-11.848-6.311-22.184-15.881-27.716c-4.682-2.752-10-4.337-15.854-4.337h-96.266h-128h-128.001h-128h-128h-95.734
				c-17.673,0-32.265,14.38-32.265,32.053v299.89l-1.14,0.427l1.14,3.037v144.594l0,0l0,0h-95.798c0,35,28.491,64.026,63.837,64.026
				c0.042,0-0.039,0.023-0.039,0.023v-0.05H1520.992z"/>
		</g>
	</g>
	<g>
		<g>
			<polygon fill="#36687D" points="1648.684,648.853 1713.734,584.314 1713.734,264.853 1169.734,264.853 1169.734,648.853 			"/>
		</g>
	</g>
	<g>
		<g>
			<polygon fill="#36687D" points="1136.734,170.929 1136.734,138.853 720.734,138.853 720.734,170.929 720.734,650.853 
				1136.734,650.853 			"/>
		</g>
	</g>
	<g>
		<g>
			<path fill="#36687D" d="M1800.734,574.99v56.856c0,6.956,6.176,13.006,13.131,13.006h11.869v7h32v-7h12.398
				c6.955,0,12.602-6.05,12.602-13.006V574.99v-12.646c0-35.498,41.98-67.26,41.98-116s-37.031-82.738-82.727-82.738
				s-82.977,33.998-82.977,82.738s41.723,80.502,41.723,116V574.99z"/>
		</g>
	</g>
	<g>
		<g>
			<path fill="#36687D" d="M1184.684,228.853h256l9.23-152h-9.18v-40h-144.051c0-9-7.162-16-16-16h-40.057
				c-3.762-7-11.287-11.976-19.943-11.976c-12.406,0-22.5,10.032-22.5,22.438c0,1.935,0.256,3.538,0.719,5.538h-14.168v40h-9.279
				L1184.684,228.853z"/>
		</g>
	</g>
	<g>
		<g>
			<path fill="#36687D" d="M296.343,720.136c40.72,31.823,91.972,50.793,147.656,50.793c132.549,0,240-107.451,240-240
				s-107.451-240-240-240c-100.797,0-187.199,62.146-222.753,150.207c-9.48-2.653-19.512-4.492-29.512-5.444v-9.459
				c19-6.648,33.133-24.887,33.133-46.304c0-27.02-21.916-49-48.935-49s-49.099,21.98-49.099,49c0,21.417,13.9,39.656,32.9,46.304
				v9.459c-39,3.696-74.188,20.801-100.848,46.672l-8.659-8.725l2.86-2.827c3.125-3.125,3.142-8.191,0.017-11.314
				c-3.124-3.123-8.181-3.123-11.305,0l-11.31,11.314c-3.125,3.123-3.123,8.188,0.002,11.313c1.563,1.563,3.61,2.344,5.657,2.344
				c2.048,0,4.097-0.781,5.658-2.344l2.828-2.828l8.774,8.775C25.251,518.113,7.999,558.503,7.999,602.929
				c0,92.785,75.216,168,168,168C223.189,770.929,265.826,751.465,296.343,720.136z M130.867,379.929c0-24.813,20.252-45,45.065-45
				s44.901,20.188,44.901,45c0,19.179-12.1,35.584-29.1,42.05v-4.126h-8v-10h8.265c7.18,0,13-5.82,13-13s-5.82-13-13-13h-32
				c-7.18,0-13,5.82-13,13s5.82,13,13,13h7.735v10h-8v4.126C142.734,415.513,130.867,399.107,130.867,379.929z"/>
		</g>
	</g>
	<g>
		<g>
			<path fill="#36687D" d="M598.908,1226.853c-0.607-4-1.674-8.014-3.147-11.754l15.718-9.061c-2.159-4.93-4.854-9.565-8.011-13.845
				l-15.72,9.079c-2.54-3.186-5.433-6.077-8.619-8.617l9.076-15.719c-4.279-3.158-8.921-5.851-13.851-8.01l-8.956,15.717
				c-3.741-1.474-7.664-2.538-11.664-3.147v-18.146c-3-0.291-5.296-0.445-8-0.445c-2.705,0-6,0.154-8,0.445v18.146
				c-4,0.609-8.157,1.674-11.898,3.147l-9.134-15.717c-4.93,2.159-9.6,4.853-13.879,8.011l9.062,15.72
				c-3.187,2.54-6.087,5.433-8.627,8.619l-15.724-9.076c-3.157,4.279-5.853,8.921-8.012,13.851l15.716,9.048
				c-1.473,3.74-2.54,7.754-3.148,11.754h-18.146c-0.291,3-0.445,5.296-0.445,8c0,2.705,0.154,5,0.445,8h18.146
				c0.608,4,1.675,8.066,3.147,11.808l-15.717,9.087c2.159,4.93,4.853,9.578,8.011,13.857l15.72-9.072
				c2.54,3.188,5.433,6.08,8.619,8.62l-9.076,15.721c4.279,3.157,8.921,5.853,13.851,8.012l9.191-15.717
				c3.741,1.473,7.898,2.539,11.898,3.146v18.146c2,0.291,5.295,0.444,8,0.444c2.704,0,5-0.153,8-0.444v-18.146
				c4-0.607,7.923-1.674,11.664-3.146l9.015,15.717c4.93-2.159,9.542-4.854,13.821-8.011l-9.091-15.72
				c3.187-2.54,6.071-5.432,8.611-8.619l15.716,9.076c3.158-4.279,5.851-8.92,8.01-13.85l-15.719-9.101
				c1.474-3.741,2.538-7.809,3.146-11.809h18.146c0.29-3,0.444-5.295,0.444-8c0-2.704-0.154-5-0.444-8H598.908z"/>
		</g>
	</g>
</g>
<g>
	<g>
		<g>
			<g>
				<path fill="#0E3656" d="M2281.842,866.905v-352c0-17.6-14.4-32-32-32h-255.684c-17.6,0-32,14.4-32,32v352c0,17.6,14.4,32,32,32
					h255.684C2267.441,898.905,2281.842,884.505,2281.842,866.905L2281.842,866.905z"/>
			</g>
		</g>
	</g>
	<g>
		<g>
			<g>
				<g>
					<circle fill="#0E3656" cx="1614.328" cy="1267.785" r="16"/>
				</g>
			</g>
		</g>
		<g>
			<g>
				<g>
					<rect x="1295.59" y="1251.785" fill="#F4B400" width="318.738" height="32"/>
				</g>
			</g>
		</g>
		<g>
			<g>
				<g>
					<g>
						<rect x="1579.354" y="1251.785" fill="#EB5949" width="8" height="32"/>
					</g>
				</g>
			</g>
		</g>
		<g>
			<g>
				<g>
					<polygon fill="#EFEEEE" points="1295.59,1283.785 1295.59,1251.154 1249.996,1262.553 1249.996,1272.387 					"/>
				</g>
			</g>
		</g>
		<g>
			<g>
				<g>
					<polygon fill="#0E3656" points="1249.996,1272.387 1249.996,1262.553 1230.328,1267.47 					"/>
				</g>
			</g>
		</g>
	</g>
	<g>
		<g>
			<g>
				<g>
					<rect x="266" y="802.966" fill="#CCCACA" width="416" height="320"/>
				</g>
			</g>
		</g>
		<g>
			<g>
				<g>
					<rect x="266" y="802.966" fill="#0E3656" width="416" height="32"/>
				</g>
			</g>
		</g>
		<g>
			<g>
				<g>
					<circle fill="#86CCCC" cx="298" cy="866.966" r="16"/>
				</g>
			</g>
		</g>
		<g>
			<g>
				<g>
					<rect x="394" y="854.966" fill="#0E3656" width="256" height="8"/>
				</g>
			</g>
		</g>
		<g>
			<g>
				<g>
					<rect x="330" y="870.966" fill="#0E3656" width="192" height="8"/>
				</g>
			</g>
		</g>
		<g>
			<g>
				<g>
					<rect x="330" y="854.966" fill="#86CCCC" width="48" height="8"/>
				</g>
			</g>
		</g>
		<g>
			<g>
				<g>
					<rect x="298" y="974.718" fill="#0E3656" width="96" height="8"/>
				</g>
			</g>
		</g>
		<g>
			<g>
				<g>
					<rect x="426" y="974.718" fill="#0E3656" width="96" height="8"/>
				</g>
			</g>
		</g>
		<g>
			<g>
				<g>
					<g>
						<rect x="298" y="930.718" fill="#0E3656" width="16" height="32"/>
					</g>
				</g>
			</g>
		</g>
		<g>
			<g>
				<g>
					<g>
						<rect x="330" y="898.718" fill="#F4B400" width="16" height="64"/>
					</g>
				</g>
			</g>
		</g>
		<g>
			<g>
				<g>
					<g>
						<rect x="362" y="914.718" fill="#86CCCC" width="16" height="48"/>
					</g>
				</g>
			</g>
		</g>
		<g>
			<g>
				<g>
					<g>
						<polygon fill="#F4B400" points="426,962.593 458,898.593 490,962.593 						"/>
					</g>
				</g>
			</g>
			<g>
				<g>
					<g>
						<polygon fill="#0E3656" points="474,962.593 498,914.593 522,962.593 						"/>
					</g>
				</g>
			</g>
		</g>
		<g>
			<g>
				<g>
					<g>
						<rect x="298" y="1038.718" fill="#0E3656" width="32" height="8"/>
					</g>
				</g>
			</g>
			<g>
				<g>
					<g>
						<rect x="346" y="1038.718" fill="#0E3656" width="48" height="8"/>
					</g>
				</g>
			</g>
			<g>
				<g>
					<g>
						<rect x="298" y="1006.718" fill="#86CCCC" width="48" height="8"/>
					</g>
				</g>
			</g>
			<g>
				<g>
					<g>
						<rect x="362" y="1006.718" fill="#0E3656" width="32" height="8"/>
					</g>
				</g>
			</g>
			<g>
				<g>
					<g>
						<rect x="298" y="1022.718" fill="#0E3656" width="95.5" height="8"/>
					</g>
				</g>
			</g>
			<g>
				<g>
					<g>
						<rect x="298" y="1054.718" fill="#0E3656" width="80" height="8"/>
					</g>
				</g>
			</g>
		</g>
		<g>
			<g>
				<g>
					<g>
						<rect x="426" y="1038.718" fill="#0E3656" width="32" height="8"/>
					</g>
				</g>
			</g>
			<g>
				<g>
					<g>
						<rect x="474" y="1038.718" fill="#0E3656" width="16" height="8"/>
					</g>
				</g>
			</g>
			<g>
				<g>
					<g>
						<rect x="426" y="1006.718" fill="#F4B400" width="48" height="8"/>
					</g>
				</g>
			</g>
			<g>
				<g>
					<g>
						<rect x="490" y="1006.718" fill="#0E3656" width="32" height="8"/>
					</g>
				</g>
			</g>
			<g>
				<g>
					<g>
						<rect x="426" y="1022.718" fill="#0E3656" width="96" height="8"/>
					</g>
				</g>
			</g>
			<g>
				<g>
					<g>
						<rect x="426" y="1054.718" fill="#0E3656" width="80" height="8"/>
					</g>
				</g>
			</g>
		</g>
		<g>
			<g>
				<g>
					<rect x="554" y="974.718" fill="#0E3656" width="96" height="8"/>
				</g>
			</g>
		</g>
		<g>
			<g>
				<g>
					<rect x="554" y="1038.718" fill="#0E3656" width="96" height="8"/>
				</g>
			</g>
		</g>
		<g>
			<g>
				<g>
					<rect x="554" y="1006.718" fill="#86CCCC" width="24" height="8"/>
				</g>
			</g>
		</g>
		<g>
			<g>
				<g>
					<rect x="594" y="1006.718" fill="#79BBBF" width="56" height="8"/>
				</g>
			</g>
		</g>
		<g>
			<g>
				<g>
					<rect x="554" y="1022.718" fill="#0E3656" width="48" height="8"/>
				</g>
			</g>
		</g>
		<g>
			<g>
				<g>
					<rect x="554" y="1054.718" fill="#0E3656" width="80" height="8"/>
				</g>
			</g>
		</g>
		<g>
			<g>
				<g>
					<polygon fill="#0E3656" points="634,898.718 618,898.718 602,898.718 586,898.718 570,898.718 554,898.718 554,937.594 
						570,934.845 586,940.846 602,924.596 618,934.47 634,925.532 650,916.596 650,898.718 					"/>
				</g>
			</g>
		</g>
		<g>
			<g>
				<g>
					<g>
						<polygon fill="#79BBBF" points="554,962.47 570,962.47 570,934.845 554,937.594 						"/>
					</g>
				</g>
			</g>
			<g>
				<g>
					<g>
						<polygon fill="#79BBBF" points="618,934.47 618,962.47 634,962.47 634,925.532 						"/>
					</g>
				</g>
			</g>
			<g>
				<g>
					<g>
						<polygon fill="#79BBBF" points="586,962.47 602,962.47 602,924.596 586,940.846 						"/>
					</g>
				</g>
			</g>
		</g>
		<g>
			<g>
				<g>
					<g>
						<polygon fill="#86CCCC" points="634,925.532 634,962.47 650,962.47 650,916.596 						"/>
					</g>
				</g>
			</g>
			<g>
				<g>
					<g>
						<polygon fill="#86CCCC" points="570,962.47 586,962.47 586,940.846 570,934.845 						"/>
					</g>
				</g>
			</g>
			<g>
				<g>
					<g>
						<polygon fill="#86CCCC" points="602,962.47 618,962.47 618,934.47 602,924.596 						"/>
					</g>
				</g>
			</g>
		</g>
		<g>
			<g>
				<g>
					<rect x="618" y="1022.718" fill="#0E3656" width="32" height="8"/>
				</g>
			</g>
		</g>
		<g>
			<g>
				<g>
					<rect x="537.5" y="870.966" fill="#0E3656" width="112.5" height="8"/>
				</g>
			</g>
		</g>
	</g>
	<g>
		<g>
			<g>
				<g>
					<rect x="1514" y="706.905" fill="#CCCACA" width="415.5" height="416"/>
				</g>
			</g>
		</g>
		<g>
			<g>
				<g>
					<rect x="1514" y="674.905" fill="#0E3656" width="415.5" height="32"/>
				</g>
			</g>
		</g>
		<g>
			<g>
				<g>
					<g>
						<rect x="1642" y="882.589" fill="none" width="32" height="32"/>
					</g>
				</g>
			</g>
			<g>
				<g>
					<g>
						<rect x="1698" y="882.589" fill="none" width="16" height="16"/>
					</g>
				</g>
			</g>
			<g>
				<g>
					<g>
						<g>
							<rect x="1578" y="846.589" fill="#0E3656" width="159.667" height="8"/>
						</g>
					</g>
				</g>
				<g>
					<g>
						<g>
							<rect x="1754" y="846.589" fill="#86CCCC" width="104" height="8"/>
						</g>
					</g>
				</g>
				<g>
					<g>
						<g>
							<rect x="1562" y="862.589" fill="#86CCCC" width="312" height="8"/>
						</g>
					</g>
				</g>
				<g>
					<g>
						<g>
							<rect x="1578" y="878.589" fill="#86CCCC" width="80" height="8"/>
						</g>
					</g>
				</g>
				<g>
					<g>
						<g>
							<rect x="1674" y="878.589" fill="#0E3656" width="32" height="8"/>
						</g>
					</g>
				</g>
				<g>
					<g>
						<g>
							<rect x="1722" y="878.589" fill="#86CCCC" width="136" height="8"/>
						</g>
					</g>
				</g>
			</g>
			<g>
				<g>
					<g>
						<rect x="1546" y="1006.589" fill="#0E3656" width="80" height="8"/>
					</g>
				</g>
			</g>
			<g>
				<g>
					<g>
						<rect x="1802" y="1006.589" fill="#0E3656" width="96" height="8"/>
					</g>
				</g>
			</g>
			<g>
				<g>
					<g>
						<rect x="1674" y="1038.589" fill="#0E3656" width="96" height="8"/>
					</g>
				</g>
			</g>
			<g>
				<g>
					<g>
						<rect x="1802" y="1038.589" fill="#0E3656" width="64" height="8"/>
					</g>
				</g>
			</g>
			<g>
				<g>
					<g>
						<rect x="1546" y="1038.589" fill="#0E3656" width="48" height="8"/>
					</g>
				</g>
			</g>
			<g>
				<g>
					<g>
						<rect x="1610" y="1038.589" fill="#0E3656" width="32" height="8"/>
					</g>
				</g>
			</g>
			<g>
				<g>
					<g>
						<rect x="1802" y="1022.589" fill="#0E3656" width="32" height="8"/>
					</g>
				</g>
			</g>
			<g>
				<g>
					<g>
						<rect x="1546" y="1022.589" fill="#0E3656" width="64" height="8"/>
					</g>
				</g>
			</g>
			<g>
				<g>
					<g>
						<rect x="1802" y="1054.589" fill="#0E3656" width="48" height="8"/>
					</g>
				</g>
			</g>
			<g>
				<g>
					<g>
						<rect x="1866" y="1054.589" fill="#0E3656" width="32" height="8"/>
					</g>
				</g>
			</g>
			<g>
				<g>
					<g>
						<rect x="1674" y="1054.589" fill="#0E3656" width="32" height="8"/>
					</g>
				</g>
			</g>
			<g>
				<g>
					<g>
						<rect x="1722" y="1054.589" fill="#0E3656" width="16" height="8"/>
					</g>
				</g>
			</g>
			<g>
				<g>
					<g>
						<rect x="1546" y="1054.589" fill="#0E3656" width="80" height="8"/>
					</g>
				</g>
			</g>
			<g>
				<g>
					<g>
						<rect x="1674" y="1022.589" fill="#0E3656" width="48" height="8"/>
					</g>
				</g>
			</g>
			<g>
				<g>
					<g>
						<rect x="1850" y="1022.589" fill="#0E3656" width="48" height="8"/>
					</g>
				</g>
			</g>
			<g>
				<g>
					<g>
						<rect x="1738" y="1022.589" fill="#0E3656" width="32" height="8"/>
					</g>
				</g>
			</g>
			<g>
				<g>
					<g>
						<rect x="1674" y="1006.589" fill="#0E3656" width="80" height="8"/>
					</g>
				</g>
			</g>
			<g>
				<g>
					<g>
						<rect x="1546" y="914.589" fill="#EB5949" width="96" height="80"/>
					</g>
				</g>
			</g>
			<g>
				<g>
					<g>
						<rect x="1674" y="914.589" fill="#86CCCC" width="96" height="80"/>
					</g>
				</g>
			</g>
			<g>
				<g>
					<g>
						<rect x="1802" y="914.589" fill="#F4B400" width="96" height="80"/>
					</g>
				</g>
			</g>
		</g>
		<g>
			<g>
				<g>
					<g>
						<rect x="1546.063" y="786.905" fill="#86CCCC" width="351.875" height="32"/>
					</g>
				</g>
			</g>
			<g>
				<g>
					<g>
						<g>
							<rect x="1563.597" y="798.905" fill="#EFEEEE" width="35.194" height="8"/>
						</g>
					</g>
				</g>
			</g>
			<g>
				<g>
					<g>
						<g>
							<rect x="1616.388" y="786.905" fill="#0E3656" width="70.388" height="32"/>
						</g>
					</g>
				</g>
				<g>
					<g>
						<g>
							<rect x="1633.984" y="798.905" fill="#EFEEEE" width="35.193" height="8"/>
						</g>
					</g>
				</g>
			</g>
			<g>
				<g>
					<g>
						<g>
							<rect x="1704.372" y="798.905" fill="#EFEEEE" width="35.193" height="8"/>
						</g>
					</g>
				</g>
			</g>
			<g>
				<g>
					<g>
						<g>
							<rect x="1774.76" y="798.905" fill="#EFEEEE" width="35.193" height="8"/>
						</g>
					</g>
				</g>
			</g>
			<g>
				<g>
					<g>
						<g>
							<rect x="1845.146" y="798.905" fill="#EFEEEE" width="35.194" height="8"/>
						</g>
					</g>
				</g>
			</g>
		</g>
		<g>
			<g>
				<g>
					<g>
						<rect x="1546" y="750.905" fill="#0E3656" width="192" height="8"/>
					</g>
				</g>
			</g>
			<g>
				<g>
					<g>
						<rect x="1546" y="734.905" fill="#86CCCC" width="48" height="8"/>
					</g>
				</g>
			</g>
		</g>
	</g>
	<g>
		<g>
			<g>
				<g>
					<g>
						<circle fill="#0E3656" cx="1930" cy="1075.47" r="144"/>
					</g>
				</g>
			</g>
		</g>
		<g>
			<g>
				<g>
					<g>
						<path fill="#86CCCC" d="M1930,967.47c28.848,0,55.969,11.234,76.367,31.633s31.633,47.52,31.633,76.367
							s-11.234,55.969-31.633,76.367c-20.398,20.399-47.52,31.633-76.367,31.633c-28.849,0-55.969-11.233-76.367-31.633
							c-20.398-20.398-31.633-47.52-31.633-76.367s11.234-55.969,31.633-76.367S1901.151,967.47,1930,967.47L1930,967.47z"/>
					</g>
				</g>
			</g>
		</g>
		<g>
			<g>
				<g>
					<g>
						<rect x="1912" y="1219.47" fill="#36687D" width="36" height="144"/>
					</g>
				</g>
			</g>
		</g>
		<g>
			<g>
				<g>
					<g>
						<rect x="1894" y="1267.47" fill="#0E3656" width="72" height="192"/>
					</g>
				</g>
			</g>
		</g>
		<g>
			<g>
				<g>
					<g>
						<g>
							<path fill="#EFEEEE" d="M1870,1093.47c-9.941,0-18-8.059-18-18c0-20.834,8.113-40.422,22.846-55.153
								c14.73-14.732,34.318-22.847,55.154-22.847c9.941,0,18,8.059,18,18s-8.059,18-18,18c-11.219,0-21.766,4.369-29.698,12.302
								S1888,1064.251,1888,1075.47C1888,1085.411,1879.941,1093.47,1870,1093.47z"/>
						</g>
					</g>
				</g>
			</g>
		</g>
	</g>
	<g>
		<g>
			<g>
				<path fill="#EC7A6E" d="M1450,674.853h-96.266h-128h-128h-128h-128H746c-17.673,0-32.266,14.38-32.266,32.053v447.947h128h128
					h128h128h128h128V706.905C1481.734,689.232,1467.673,674.853,1450,674.853z"/>
			</g>
		</g>
		<g>
			<g>
				<g>
					<polygon fill="#EB5949" points="1353.867,834.722 1226,961.853 1097.368,961.853 970,882.722 841.867,962.844 
						713.734,1010.967 713.734,1186.853 842,1186.853 970,1186.853 1097.368,1186.853 1226,1186.853 1354,1186.853 
						1481.734,1186.853 1481.734,818.967 					"/>
				</g>
			</g>
			<g>
				<g>
					<g>
						<polygon fill="#0E3656" points="715.405,1014.712 712.595,1007.222 840.22,959.361 969.997,878.252 1098.513,958.342 
							1224.349,958.342 1352.147,831.166 1353.504,830.997 1481.504,814.998 1482.496,822.936 1355.853,838.766 1227.651,966.342 
							1096.224,966.342 970.003,887.682 843.78,966.57 						"/>
					</g>
				</g>
			</g>
			<g>
				<g>
					<g>
						<circle fill="#EFEEEE" cx="842" cy="962.966" r="16"/>
					</g>
				</g>
			</g>
			<g>
				<g>
					<g>
						<circle fill="#EFEEEE" cx="970" cy="882.967" r="16"/>
					</g>
				</g>
			</g>
			<g>
				<g>
					<g>
						<circle fill="#EFEEEE" cx="1354" cy="834.966" r="16"/>
					</g>
				</g>
			</g>
			<g>
				<g>
					<g>
						<circle fill="#EFEEEE" cx="1225.368" cy="962.843" r="16"/>
					</g>
				</g>
			</g>
			<g>
				<g>
					<g>
						<circle fill="#EFEEEE" cx="1098" cy="962.843" r="16"/>
					</g>
				</g>
			</g>
		</g>
		<g>
			<g>
				<g>
					<path fill="#CCCACA" d="M617.938,1154.905c0,35.346,28.654,64,64,64c0.042,0,0.083-0.003,0.125-0.003v0.003h830.93
						c35.346,0,64-28.654,64-64H617.938z"/>
				</g>
			</g>
		</g>
		<g>
			<g>
				<g>
					<g>
						<path fill="#D6DADD" d="M1001.842,1154.905c0,17.673,14.327,32,32,32v-32H1001.842z"/>
					</g>
				</g>
			</g>
			<g>
				<g>
					<g>
						<path fill="#D6DADD" d="M1162.158,1186.905c17.674,0,32-14.327,32-32h-32V1186.905z"/>
					</g>
				</g>
			</g>
			<g>
				<g>
					<g>
						<path fill="#D6DADD" d="M1130.158,1154.905h-64.316c0,17.673-14.326,32-32,32h128.316
							C1144.485,1186.905,1130.158,1172.578,1130.158,1154.905z"/>
					</g>
				</g>
			</g>
			<g>
				<g>
					<g>
						<path fill="#D6DADD" d="M1065.842,1154.905h-32v32C1051.516,1186.905,1065.842,1172.578,1065.842,1154.905z"/>
					</g>
				</g>
			</g>
			<g>
				<g>
					<g>
						<path fill="#D6DADD" d="M1130.158,1154.905c0,17.673,14.327,32,32,32v-32H1130.158z"/>
					</g>
				</g>
			</g>
		</g>
		<g>
			<g>
				<g>
					<path fill="#0E3656" d="M1450,706.905L1450,706.905L1450,706.905v416H746v-416H1450L1450,706.905z M1450,674.905H746
						c-17.673,0-32,14.327-32,32v448h768v-448C1482,689.232,1467.673,674.905,1450,674.905L1450,674.905z"/>
				</g>
			</g>
		</g>
	</g>
	<g>
		<g>
			<g>
				<path fill="#EFEEEE" d="M2249.842,866.848c-0.017,0.02-0.038,0.041-0.058,0.058h-255.568c-0.02-0.017-0.041-0.038-0.058-0.058
					V514.963c0.017-0.021,0.038-0.041,0.058-0.058h255.568c0.02,0.017,0.041,0.038,0.058,0.058V866.848L2249.842,866.848z"/>
			</g>
		</g>
	</g>
	<g>
		<g>
			<g>
				<rect x="2103.705" y="878.905" fill="#EFEEEE" width="32" height="8"/>
			</g>
		</g>
	</g>
	<g>
		<g>
			<g>
				<g>
					<polygon fill="#36687D" points="1705.367,576.314 1705.367,257 1161.684,257 1161.684,641 1640.684,641 					"/>
				</g>
			</g>
		</g>
		<g>
			<g>
				<g>
					<polygon fill="#0E3656" points="1640.682,576.314 1640.682,641 1705.367,576.314 					"/>
				</g>
			</g>
		</g>
		<g>
			<g>
				<g>
					<g>
						<rect x="1349.684" y="369" fill="#EFEEEE" width="8" height="104"/>
					</g>
				</g>
			</g>
			<g>
				<g>
					<g>
						<rect x="1509.684" y="369" fill="#EFEEEE" width="8" height="144"/>
					</g>
				</g>
			</g>
			<g>
				<g>
					<g>
						<rect x="1556.686" y="429" fill="#EFEEEE" width="68.998" height="8"/>
					</g>
				</g>
			</g>
			<g>
				<g>
					<g>
						<rect x="1225.684" y="461" fill="#EFEEEE" width="127" height="8"/>
					</g>
				</g>
			</g>
			<g>
				<g>
					<g>
						<path fill="none" stroke="#E5E5E5" stroke-width="8" stroke-miterlimit="10" d="M1512.684,433"/>
					</g>
				</g>
			</g>
			<g>
				<g>
					<g>
						<rect x="1289.684" y="417" fill="#EFEEEE" width="128" height="96"/>
					</g>
				</g>
			</g>
			<g>
				<g>
					<g>
						<rect x="1449.684" y="481" fill="#EFEEEE" width="128" height="64"/>
					</g>
				</g>
			</g>
			<g>
				<g>
					<g>
						<rect x="1449.684" y="417" fill="#EFEEEE" width="128" height="32"/>
					</g>
				</g>
			</g>
			<g>
				<g>
					<g>
						<g>
							<rect x="1473.684" y="501" fill="#0E3656" width="32" height="8"/>
						</g>
					</g>
				</g>
				<g>
					<g>
						<g>
							<rect x="1473.684" y="429" fill="#0E3656" width="48" height="8"/>
						</g>
					</g>
				</g>
				<g>
					<g>
						<g>
							<rect x="1521.684" y="501" fill="#0E3656" width="16" height="8"/>
						</g>
					</g>
				</g>
				<g>
					<g>
						<g>
							<rect x="1473.684" y="517" fill="#0E3656" width="80" height="8"/>
						</g>
					</g>
				</g>
			</g>
			<g>
				<g>
					<g>
						<g>
							<rect x="1304.684" y="469" fill="#0E3656" width="96" height="8"/>
						</g>
					</g>
				</g>
				<g>
					<g>
						<g>
							<rect x="1304.684" y="485" fill="#0E3656" width="32" height="8"/>
						</g>
					</g>
				</g>
				<g>
					<g>
						<g>
							<rect x="1352.684" y="485" fill="#0E3656" width="16" height="8"/>
						</g>
					</g>
				</g>
				<g>
					<g>
						<g>
							<rect x="1304.684" y="453" fill="#0E3656" width="48" height="8"/>
						</g>
					</g>
				</g>
				<g>
					<g>
						<g>
							<rect x="1368.684" y="453" fill="#0E3656" width="32" height="8"/>
						</g>
					</g>
				</g>
				<g>
					<g>
						<g>
							<rect x="1304.684" y="437" fill="#0E3656" width="80" height="8"/>
						</g>
					</g>
				</g>
			</g>
			<g>
				<g>
					<g>
						<rect x="1521.684" y="429" fill="#0E3656" width="32" height="8"/>
					</g>
				</g>
			</g>
			<g>
				<g>
					<g>
						<rect x="1609.684" y="417" fill="#EFEEEE" width="64" height="32"/>
					</g>
				</g>
			</g>
			<g>
				<g>
					<g>
						<rect x="1193.684" y="433" fill="#EFEEEE" width="64" height="64"/>
					</g>
				</g>
			</g>
			<g>
				<g>
					<g>
						<rect x="1624.684" y="429" fill="#0E3656" width="32" height="8"/>
					</g>
				</g>
			</g>
			<g>
				<g>
					<g>
						<rect x="1193.684" y="353" fill="#EFEEEE" width="480" height="32"/>
					</g>
				</g>
			</g>
			<g>
				<g>
					<g>
						<rect x="1209.684" y="365" fill="#0E3656" width="48" height="8"/>
					</g>
				</g>
			</g>
			<g>
				<g>
					<g>
						<g>
							<rect x="1272.684" y="365" fill="#0E3656" width="32" height="8"/>
						</g>
					</g>
				</g>
				<g>
					<g>
						<g>
							<rect x="1320.684" y="365" fill="#0E3656" width="16" height="8"/>
						</g>
					</g>
				</g>
				<g>
					<g>
						<g>
							<rect x="1353.684" y="365" fill="#0E3656" width="160" height="8"/>
						</g>
					</g>
				</g>
				<g>
					<g>
						<g>
							<rect x="1528.684" y="365" fill="#0E3656" width="80" height="8"/>
						</g>
					</g>
				</g>
			</g>
			<g>
				<g>
					<g>
						<rect x="1209.684" y="453" fill="#0E3656" width="32" height="8"/>
					</g>
				</g>
			</g>
			<g>
				<g>
					<g>
						<rect x="1209.684" y="469" fill="#0E3656" width="16" height="8"/>
					</g>
				</g>
			</g>
			<g>
				<g>
					<g>
						<rect x="1624.684" y="365" fill="#0E3656" width="32" height="8"/>
					</g>
				</g>
			</g>
		</g>
	</g>
	<g>
		<g>
			<g>
				<g>
					<rect x="712.771" y="162.929" fill="#CCCACA" width="416" height="480"/>
				</g>
			</g>
		</g>
		<g>
			<g>
				<g>
					<rect x="744.771" y="210.929" fill="#86CCCC" width="352" height="64"/>
				</g>
			</g>
		</g>
		<g>
			<g>
				<g>
					<rect x="712.771" y="130.929" fill="#0E3656" width="416" height="32"/>
				</g>
			</g>
		</g>
		<g>
			<g>
				<g>
					<rect x="744.771" y="178.177" fill="#86CCCC" width="352" height="8"/>
				</g>
			</g>
		</g>
		<g>
			<g>
				<g>
					<rect x="840.771" y="258.929" fill="none" width="32" height="32"/>
				</g>
			</g>
		</g>
		<g>
			<g>
				<g>
					<rect x="896.771" y="258.929" fill="none" width="16" height="16"/>
				</g>
			</g>
		</g>
		<g>
			<g>
				<g>
					<g>
						<rect x="776.771" y="222.929" fill="#EFEEEE" width="159.667" height="8"/>
					</g>
				</g>
			</g>
			<g>
				<g>
					<g>
						<rect x="952.771" y="222.929" fill="#EFEEEE" width="104" height="8"/>
					</g>
				</g>
			</g>
			<g>
				<g>
					<g>
						<rect x="760.771" y="238.929" fill="#EFEEEE" width="312" height="8"/>
					</g>
				</g>
			</g>
			<g>
				<g>
					<g>
						<rect x="776.771" y="254.929" fill="#EFEEEE" width="80" height="8"/>
					</g>
				</g>
			</g>
			<g>
				<g>
					<g>
						<rect x="872.771" y="254.929" fill="#EFEEEE" width="32" height="8"/>
					</g>
				</g>
			</g>
			<g>
				<g>
					<g>
						<rect x="920.771" y="254.929" fill="#EFEEEE" width="136" height="8"/>
					</g>
				</g>
			</g>
		</g>
		<g>
			<g>
				<g>
					<rect x="744.771" y="382.929" fill="#0E3656" width="80" height="8"/>
				</g>
			</g>
		</g>
		<g>
			<g>
				<g>
					<rect x="1000.771" y="382.929" fill="#0E3656" width="96" height="8"/>
				</g>
			</g>
		</g>
		<g>
			<g>
				<g>
					<rect x="872.771" y="414.929" fill="#0E3656" width="96" height="8"/>
				</g>
			</g>
		</g>
		<g>
			<g>
				<g>
					<rect x="1000.771" y="414.929" fill="#0E3656" width="64" height="8"/>
				</g>
			</g>
		</g>
		<g>
			<g>
				<g>
					<rect x="744.771" y="414.929" fill="#0E3656" width="48" height="8"/>
				</g>
			</g>
		</g>
		<g>
			<g>
				<g>
					<rect x="808.771" y="414.929" fill="#0E3656" width="32" height="8"/>
				</g>
			</g>
		</g>
		<g>
			<g>
				<g>
					<rect x="1000.771" y="398.929" fill="#0E3656" width="32" height="8"/>
				</g>
			</g>
		</g>
		<g>
			<g>
				<g>
					<rect x="744.771" y="398.929" fill="#0E3656" width="64" height="8"/>
				</g>
			</g>
		</g>
		<g>
			<g>
				<g>
					<rect x="1000.771" y="430.929" fill="#0E3656" width="48" height="8"/>
				</g>
			</g>
		</g>
		<g>
			<g>
				<g>
					<rect x="1064.771" y="430.929" fill="#0E3656" width="32" height="8"/>
				</g>
			</g>
		</g>
		<g>
			<g>
				<g>
					<rect x="872.771" y="430.929" fill="#0E3656" width="32" height="8"/>
				</g>
			</g>
		</g>
		<g>
			<g>
				<g>
					<rect x="920.771" y="430.929" fill="#0E3656" width="16" height="8"/>
				</g>
			</g>
		</g>
		<g>
			<g>
				<g>
					<rect x="744.771" y="430.929" fill="#0E3656" width="80" height="8"/>
				</g>
			</g>
		</g>
		<g>
			<g>
				<g>
					<rect x="872.771" y="398.929" fill="#0E3656" width="48" height="8"/>
				</g>
			</g>
		</g>
		<g>
			<g>
				<g>
					<rect x="1048.771" y="398.929" fill="#0E3656" width="48" height="8"/>
				</g>
			</g>
		</g>
		<g>
			<g>
				<g>
					<rect x="936.771" y="398.929" fill="#0E3656" width="32" height="8"/>
				</g>
			</g>
		</g>
		<g>
			<g>
				<g>
					<rect x="872.771" y="382.929" fill="#0E3656" width="80" height="8"/>
				</g>
			</g>
		</g>
		<g>
			<g>
				<g>
					<rect x="744.771" y="290.929" fill="#0E3656" width="96" height="80"/>
				</g>
			</g>
		</g>
		<g>
			<g>
				<g>
					<rect x="872.771" y="290.929" fill="#F4B400" width="96" height="80"/>
				</g>
			</g>
		</g>
		<g>
			<g>
				<g>
					<rect x="1000.771" y="290.929" fill="#0E3656" width="96" height="80"/>
				</g>
			</g>
		</g>
		<g>
			<g>
				<g>
					<g>
						<rect x="744.771" y="482.929" fill="#86CCCC" width="64" height="64"/>
					</g>
				</g>
			</g>
			<g>
				<g>
					<g>
						<rect x="744.771" y="558.929" fill="#86CCCC" width="64" height="8"/>
					</g>
				</g>
			</g>
			<g>
				<g>
					<g>
						<rect x="744.771" y="574.929" fill="#0E3656" width="64" height="8"/>
					</g>
				</g>
			</g>
			<g>
				<g>
					<g>
						<rect x="744.771" y="590.929" fill="#0E3656" width="64" height="8"/>
					</g>
				</g>
			</g>
			<g>
				<g>
					<g>
						<rect x="744.771" y="606.929" fill="#0E3656" width="48" height="8"/>
					</g>
				</g>
			</g>
		</g>
		<g>
			<g>
				<g>
					<g>
						<rect x="840.771" y="482.929" fill="#86CCCC" width="64" height="64"/>
					</g>
				</g>
			</g>
			<g>
				<g>
					<g>
						<rect x="840.771" y="558.929" fill="#86CCCC" width="64" height="8"/>
					</g>
				</g>
			</g>
			<g>
				<g>
					<g>
						<rect x="840.771" y="574.929" fill="#0E3656" width="64" height="8"/>
					</g>
				</g>
			</g>
			<g>
				<g>
					<g>
						<rect x="840.771" y="590.929" fill="#0E3656" width="48" height="8"/>
					</g>
				</g>
			</g>
			<g>
				<g>
					<g>
						<rect x="840.771" y="606.929" fill="#0E3656" width="64" height="8"/>
					</g>
				</g>
			</g>
		</g>
		<g>
			<g>
				<g>
					<g>
						<rect x="936.771" y="482.929" fill="#0E3656" width="64" height="64"/>
					</g>
				</g>
			</g>
			<g>
				<g>
					<g>
						<rect x="936.771" y="558.929" fill="#0E3656" width="48" height="8"/>
					</g>
				</g>
			</g>
			<g>
				<g>
					<g>
						<rect x="936.771" y="574.929" fill="#0E3656" width="64" height="8"/>
					</g>
				</g>
			</g>
			<g>
				<g>
					<g>
						<rect x="936.771" y="590.929" fill="#0E3656" width="64" height="8"/>
					</g>
				</g>
			</g>
			<g>
				<g>
					<g>
						<rect x="936.771" y="606.929" fill="#0E3656" width="48" height="8"/>
					</g>
				</g>
			</g>
		</g>
		<g>
			<g>
				<g>
					<g>
						<rect x="1032.771" y="482.929" fill="#F4B400" width="64" height="64"/>
					</g>
				</g>
			</g>
			<g>
				<g>
					<g>
						<rect x="1032.771" y="558.929" fill="#F4B400" width="64" height="8"/>
					</g>
				</g>
			</g>
			<g>
				<g>
					<g>
						<rect x="1032.771" y="574.929" fill="#0E3656" width="31.832" height="8"/>
					</g>
				</g>
			</g>
			<g>
				<g>
					<g>
						<rect x="1032.771" y="590.929" fill="#0E3656" width="64" height="8"/>
					</g>
				</g>
			</g>
			<g>
				<g>
					<g>
						<rect x="1032.771" y="606.929" fill="#0E3656" width="48" height="8"/>
					</g>
				</g>
			</g>
		</g>
		<g>
			<g>
				<g>
					<rect x="744.771" y="462.929" fill="#86CCCC" width="352" height="8"/>
				</g>
			</g>
		</g>
	</g>
	<g>
		<g>
			<g>
				<g>
					<g>
						<rect x="1818.193" y="611.991" fill="#0E3656" width="31.613" height="31.615"/>
					</g>
				</g>
			</g>
			<g>
				<g>
					<g>
						<path fill="#F4B400" d="M1834,554.345V355.606c-45.695,0-82.738,33.998-82.738,82.738s41.959,80.502,41.959,116
							c2.563,0,7.027,0,12.646,0C1813.671,554.345,1823.706,554.345,1834,554.345z"/>
					</g>
				</g>
			</g>
			<g>
				<g>
					<g>
						<path fill="#F08C20" d="M1834,355.606v198.738c10.294,0,20.329,0,28.134,0c5.618,0,10.083,0,12.646,0
							c0-35.498,41.959-67.26,41.959-116S1879.695,355.606,1834,355.606z"/>
					</g>
				</g>
			</g>
			<g>
				<g>
					<g>
						<path fill="#EFEEEE" d="M1834,636.493h28.134c6.955,0,12.646-5.69,12.646-12.646V566.99H1834V636.493z"/>
					</g>
				</g>
			</g>
			<g>
				<g>
					<g>
						<path fill="#EFEEEE" d="M1793.221,566.99v56.856c0,6.956,5.69,12.646,12.646,12.646H1834V566.99H1793.221z"/>
					</g>
				</g>
			</g>
			<g>
				<g>
					<g>
						<path fill="#0E3656" d="M1805.866,554.345c-5.618,0-10.083,0-12.646,0v12.646H1834v-12.646
							C1823.706,554.345,1813.671,554.345,1805.866,554.345z"/>
					</g>
				</g>
			</g>
			<g>
				<g>
					<g>
						<path fill="#0E3656" d="M1862.134,554.345c-7.805,0-17.84,0-28.134,0v12.646h40.779v-12.646
							C1872.217,554.345,1867.752,554.345,1862.134,554.345z"/>
					</g>
				</g>
			</g>
		</g>
	</g>
	<g>
		<g>
			<g>
				<g>
					<path fill="none" d="M1190.185,23.5c0,9.589,6.032,17.792,14.5,21.024v-1.899h4V37.5h-4c-3.59,0-6.5-2.91-6.5-6.5
						s2.91-6.5,6.5-6.5h8V1C1200.277,1,1190.185,11.094,1190.185,23.5z"/>
				</g>
			</g>
		</g>
		<g>
			<g>
				<g>
					<path fill="none" d="M1220.685,24.5c3.59,0,6.5,2.91,6.5,6.5s-2.91,6.5-6.5,6.5h-4v5.125h4v1.899
						c8.468-3.232,14.5-11.436,14.5-21.024c0-12.406-10.093-22.5-22.5-22.5v23.5H1220.685z"/>
				</g>
			</g>
		</g>
		<g>
			<g>
				<g>
					<g>
						<rect x="1176.685" y="29.1" fill="#F08C20" width="256" height="176.051"/>
					</g>
				</g>
			</g>
			<g>
				<g>
					<g>
						<rect x="1208.685" y="13.1" fill="#F08C20" width="64" height="32"/>
					</g>
				</g>
			</g>
			<g>
				<g>
					<g>
						<circle fill="#F08C20" cx="1272.685" cy="29.1" r="16"/>
					</g>
				</g>
			</g>
			<g>
				<g>
					<g>
						<circle fill="#F08C20" cx="1208.685" cy="29.1" r="16"/>
					</g>
				</g>
			</g>
			<g>
				<g>
					<g>
						<g>
							
								<rect x="1188.488" y="45.261" transform="matrix(0.9999 -0.0129 0.0129 0.9999 -1.5314 16.8185)" fill="#CCBEAC" width="238.589" height="164.588"/>
						</g>
					</g>
				</g>
				<g>
					<g>
						<g>
							
								<rect x="1194.74" y="40.082" transform="matrix(1 0.0039 -0.0039 1 0.485 -5.08)" fill="#D6DADD" width="227.888" height="164.585"/>
						</g>
					</g>
				</g>
				<g>
					<g>
						<g>
							
								<rect x="1190.74" y="54.08" transform="matrix(1 -0.0023 0.0023 1 -0.3098 2.9971)" fill="#EFEEEE" width="227.887" height="164.586"/>
						</g>
					</g>
				</g>
			</g>
			<g>
				<g>
					<g>
						<polygon fill="#F4B400" points="1176.685,220.898 1167.455,68.672 1441.914,68.672 1432.685,220.898 						"/>
					</g>
				</g>
			</g>
			<g>
				<g>
					<g>
						<rect x="1176.685" y="29.1" fill="none" width="256" height="191.799"/>
					</g>
				</g>
			</g>
		</g>
		<g>
			<g>
				<g>
					<circle fill="#EFEEEE" cx="1304.685" cy="144.785" r="59.401"/>
				</g>
			</g>
		</g>
		<g>
			<g>
				<g>
					<g>
						<polygon fill="#0E3656" points="1332.686,160.785 1324.686,160.785 1324.686,148.785 1284.686,148.785 1284.686,160.785 
							1276.686,160.785 1276.686,140.785 1332.686,140.785 						"/>
					</g>
				</g>
			</g>
			<g>
				<g>
					<g>
						<rect x="1300.686" y="128.785" fill="#0E3656" width="8" height="32"/>
					</g>
				</g>
			</g>
			<g>
				<g>
					<g>
						<circle fill="#EB5949" cx="1304.686" cy="120.785" r="8"/>
					</g>
				</g>
			</g>
			<g>
				<g>
					<g>
						<circle fill="#EB5949" cx="1280.686" cy="168.785" r="8"/>
					</g>
				</g>
			</g>
			<g>
				<g>
					<g>
						<circle fill="#EB5949" cx="1304.686" cy="168.785" r="8"/>
					</g>
				</g>
			</g>
			<g>
				<g>
					<g>
						<circle fill="#EB5949" cx="1328.686" cy="168.785" r="8"/>
					</g>
				</g>
			</g>
		</g>
	</g>
	<g>
		<g>
			<g>
				<g>
					<g>
						<g>
							<g>
								
									<rect x="26.779" y="475.781" transform="matrix(0.7071 0.7071 -0.7071 0.7071 354.1349 104.6227)" fill="#0E3656" width="48" height="8.001"/>
							</g>
						</g>
					</g>
				</g>
				<g>
					<g>
						<g>
							<g>
								<path fill="#EFEEEE" d="M28.151,476.468c-2.047,0-4.094-0.781-5.656-2.344c-3.125-3.125-3.125-8.189,0-11.313l11.313-11.314
									c3.124-3.123,8.189-3.123,11.313,0c3.125,3.123,3.125,8.189,0,11.314l-11.313,11.313
									C32.247,475.687,30.199,476.468,28.151,476.468z"/>
							</g>
						</g>
					</g>
				</g>
			</g>
			<g>
				<g>
					<g>
						<g>
							<path fill="#0E3656" d="M168,420.929c-27.019,0-49-21.98-49-49s21.981-49,49-49s49,21.98,49,49S195.019,420.929,168,420.929z
								 M168,326.929c-24.813,0-45,20.188-45,45s20.187,45,45,45s45-20.188,45-45S192.813,326.929,168,326.929z"/>
						</g>
					</g>
				</g>
			</g>
			<g>
				<g>
					<g>
						<g>
							<circle fill="#EFEEEE" cx="168" cy="594.929" r="164"/>
						</g>
					</g>
				</g>
			</g>
			<g>
				<g>
					<g>
						<g>
							<path fill="#EB5949" d="M189,594.929c0,11.598-9.402,21-21,21s-21-9.402-21-21H189z"/>
						</g>
					</g>
				</g>
			</g>
			<g>
				<g>
					<g>
						<g>
							<path fill="#0E3656" d="M168,442.929c20.526,0,40.431,4.016,59.16,11.938c18.099,7.656,34.355,18.617,48.32,32.582
								c13.964,13.965,24.927,30.223,32.581,48.32c7.922,18.73,11.938,38.633,11.938,59.16s-4.017,40.432-11.938,59.16
								c-7.654,18.098-18.617,34.355-32.581,48.32c-13.965,13.965-30.222,24.926-48.32,32.582
								c-18.729,7.922-38.634,11.938-59.16,11.938s-40.431-4.016-59.16-11.938c-18.099-7.656-34.355-18.617-48.319-32.582
								c-13.965-13.965-24.928-30.223-32.582-48.32C20.017,635.36,16,615.456,16,594.929s4.017-40.43,11.938-59.16
								c7.654-18.098,18.617-34.355,32.582-48.32c13.964-13.965,30.221-24.926,48.319-32.582
								C127.569,446.944,147.474,442.929,168,442.929L168,442.929z M168,426.929c-92.784,0-168,75.217-168,168
								c0,92.785,75.216,168,168,168s168-75.215,168-168C336,502.146,260.784,426.929,168,426.929L168,426.929z"/>
						</g>
					</g>
				</g>
			</g>
			<g>
				<g>
					<g>
						<path fill="#0E3656" d="M168,458.929c36.327,0,70.479,14.146,96.167,39.833S304,558.602,304,594.929
							c0,36.328-14.146,70.48-39.833,96.167c-25.687,25.687-59.839,39.833-96.167,39.833s-70.48-14.146-96.167-39.833
							C46.146,665.409,32,631.256,32,594.929c0-36.327,14.146-70.479,39.833-96.167S131.673,458.929,168,458.929L168,458.929z
							 M168,426.929c-92.784,0-168,75.217-168,168c0,92.785,75.216,168,168,168s168-75.215,168-168
							C336,502.146,260.784,426.929,168,426.929L168,426.929z"/>
					</g>
				</g>
			</g>
			<g>
				<g>
					<g>
						<g>
							<polygon fill="#EB5949" points="147,594.929 189,594.929 168,482.952 							"/>
						</g>
					</g>
				</g>
			</g>
			<g>
				<g>
					<g>
						<g>
							<circle fill="#EFEEEE" cx="168" cy="594.929" r="12"/>
						</g>
					</g>
				</g>
			</g>
			<g>
				<g>
					<g>
						<g>
							<rect x="160" y="379.929" fill="#0E3656" width="16" height="55"/>
						</g>
					</g>
				</g>
			</g>
			<g>
				<g>
					<g>
						<g>
							<path fill="#0E3656" d="M184,399.929h-32c-7.18,0-13-5.82-13-13s5.82-13,13-13h32c7.18,0,13,5.82,13,13
								S191.18,399.929,184,399.929z"/>
						</g>
					</g>
				</g>
			</g>
			<g>
				<g>
					<g>
						<g>
							<rect x="152" y="410.179" fill="#0E3656" width="32" height="27"/>
						</g>
					</g>
				</g>
			</g>
		</g>
		<g>
			<g>
				<g>
					<g>
						<circle fill="#EB5949" cx="436" cy="522.929" r="240"/>
					</g>
				</g>
			</g>
			<g>
				<g>
					<g>
						<path fill="#EFEEEE" d="M436,330.929c25.941,0,51.081,5.07,74.721,15.068c22.857,9.668,43.396,23.52,61.045,41.167
							c17.648,17.648,31.498,38.187,41.166,61.044C622.93,471.849,628,496.987,628,522.929s-5.07,51.08-15.068,74.721
							c-9.668,22.857-23.518,43.396-41.166,61.044s-38.188,31.499-61.045,41.167c-23.64,9.998-48.779,15.068-74.721,15.068
							c-25.94,0-51.08-5.07-74.72-15.068c-22.858-9.668-43.396-23.519-61.044-41.167s-31.5-38.187-41.168-61.044
							C249.07,574.009,244,548.87,244,522.929s5.07-51.08,15.068-74.721c9.668-22.857,23.52-43.396,41.168-61.044
							c17.648-17.647,38.187-31.499,61.044-41.167C384.92,335.999,410.06,330.929,436,330.929L436,330.929z"/>
					</g>
				</g>
			</g>
			<g>
				<g>
					<g>
						<g>
							<g>
								<path fill="#86CCCC" d="M439.451,390.972c-1.148-0.028-2.299-0.043-3.451-0.043v-24c1.342,0,2.704,0.018,4.05,0.051
									L439.451,390.972z"/>
							</g>
						</g>
					</g>
				</g>
				<g>
					<g>
						<g>
							<g>
								<path fill="#86CCCC" d="M436,678.929c-1.34,0-2.676-0.017-4.01-0.05l0.598-23.993c2.307,0.059,4.627,0.058,6.932-0.002
									l0.621,23.992C438.779,678.911,437.387,678.929,436,678.929z M423.845,678.468c-2.703-0.206-5.435-0.486-8.119-0.832
									l3.063-23.804c2.275,0.293,4.591,0.53,6.883,0.706L423.845,678.468z M448.283,678.458l-1.848-23.928
									c2.293-0.178,4.607-0.417,6.882-0.711l3.085,23.801C453.719,677.968,450.988,678.25,448.283,678.458z M407.648,676.379
									c-2.668-0.487-5.361-1.055-8.002-1.684l5.563-23.347c2.23,0.531,4.504,1.01,6.756,1.422L407.648,676.379z M464.479,676.355
									l-4.338-23.604c2.262-0.416,4.533-0.896,6.754-1.427l5.584,23.341C469.848,675.295,467.156,675.863,464.479,676.355z
									 M391.744,672.588c-2.602-0.769-5.219-1.617-7.779-2.523l8.01-22.623c2.161,0.765,4.37,1.48,6.565,2.13L391.744,672.588z
									 M480.381,672.553l-6.818-23.011c2.193-0.65,4.402-1.369,6.566-2.137l8.025,22.619
									C485.594,670.933,482.978,671.783,480.381,672.553z M376.334,667.135c-0.344-0.144-0.688-0.286-1.031-0.432
									c-2.153-0.91-4.316-1.883-6.427-2.89l10.332-21.662c1.786,0.852,3.618,1.676,5.444,2.447l0.875,0.367L376.334,667.135z
									 M495.794,667.083l-9.231-22.154l0.785-0.329c1.86-0.788,3.727-1.627,5.543-2.495l10.348,21.654
									c-2.143,1.023-4.344,2.015-6.539,2.944L495.794,667.083z M361.594,660.102c-2.385-1.297-4.766-2.672-7.073-4.088
									l12.551-20.457c1.952,1.198,3.964,2.36,5.983,3.457L361.594,660.102z M510.514,660.043l-11.471-21.082
									c2.012-1.094,4.021-2.258,5.975-3.459l12.572,20.443C515.277,657.368,512.896,658.747,510.514,660.043z M347.668,651.556
									c-2.227-1.535-4.448-3.152-6.604-4.811l14.633-19.023c1.824,1.403,3.703,2.771,5.586,4.068L347.668,651.556z
									 M524.436,651.483l-13.629-19.755c1.887-1.301,3.764-2.671,5.58-4.071l14.652,19.009
									C528.889,648.323,526.667,649.944,524.436,651.483z M334.723,641.599c-2.057-1.761-4.095-3.6-6.059-5.465l16.527-17.402
									c1.666,1.582,3.395,3.142,5.139,4.635L334.723,641.599z M537.371,641.518l-15.617-18.225
									c1.73-1.483,3.459-3.044,5.137-4.639l16.537,17.394C541.453,637.926,539.414,639.767,537.371,641.518z M322.898,630.374
									c-1.871-1.968-3.712-4.005-5.471-6.056l18.221-15.622c1.49,1.738,3.051,3.467,4.639,5.136L322.898,630.374z
									 M549.191,630.279l-17.404-16.525c1.588-1.672,3.146-3.401,4.637-5.141l18.23,15.608
									C552.898,626.272,551.061,628.311,549.191,630.279z M312.275,617.983c-1.66-2.152-3.28-4.373-4.816-6.6l19.751-13.635
									c1.3,1.883,2.67,3.762,4.074,5.583L312.275,617.983z M559.803,617.883l-19.021-14.636c1.402-1.82,2.771-3.699,4.07-5.585
									l19.764,13.617C563.078,613.509,561.459,615.73,559.803,617.883z M302.994,604.537c-1.422-2.313-2.801-4.692-4.096-7.073
									l21.078-11.476c1.095,2.011,2.26,4.022,3.461,5.977L302.994,604.537z M569.074,604.426l-20.457-12.548
									c1.203-1.963,2.367-3.977,3.459-5.984l21.088,11.459C571.873,599.728,570.498,602.107,569.074,604.426z M295.182,590.19
									c-1.032-2.156-2.027-4.366-2.957-6.567l-0.372-0.886l22.157-9.223l0.32,0.764c0.787,1.863,1.629,3.731,2.502,5.556
									L295.182,590.19z M576.876,590.071l-21.661-10.333c0.855-1.793,1.682-3.631,2.457-5.462c0.123-0.293,0.24-0.571,0.355-0.85
									l22.174,9.183c-0.143,0.344-0.287,0.688-0.432,1.03C578.861,585.787,577.885,587.956,576.876,590.071z M288.913,575.104
									c-0.909-2.56-1.761-5.176-2.53-7.776l23.012-6.816c0.65,2.194,1.369,4.403,2.136,6.564L288.913,575.104z M583.129,574.987
									l-22.621-8.018c0.764-2.154,1.479-4.362,2.129-6.561l23.018,6.795C584.885,569.813,584.035,572.431,583.129,574.987z
									 M284.268,559.427c-0.631-2.64-1.199-5.332-1.689-8l23.604-4.338c0.414,2.252,0.895,4.525,1.428,6.754L284.268,559.427z
									 M587.762,559.306l-23.346-5.568c0.531-2.226,1.01-4.498,1.422-6.753l23.609,4.317
									C588.957,553.976,588.391,556.668,587.762,559.306z M281.313,543.354c-0.349-2.684-0.631-5.416-0.84-8.125l23.93-1.844
									c0.176,2.293,0.416,4.606,0.711,6.877L281.313,543.354z M590.705,543.228l-23.803-3.07c0.293-2.27,0.529-4.584,0.705-6.88
									l23.93,1.827C591.33,537.813,591.051,540.546,590.705,543.228z M280.055,527.087c-0.035-1.371-0.054-2.769-0.055-4.154
									c0-1.336,0.018-2.666,0.05-3.992l23.992,0.594c-0.027,1.129-0.042,2.261-0.042,3.395c0.001,1.181,0.016,2.362,0.047,3.541
									L280.055,527.087z M591.949,526.964l-23.992-0.608c0.029-1.14,0.043-2.282,0.043-3.427c0-1.171-0.014-2.339-0.045-3.505
									l23.994-0.61c0.033,1.363,0.051,2.748,0.051,4.115C592,524.28,591.984,525.638,591.949,526.964z M304.391,512.616
									l-23.932-1.82c0.206-2.705,0.486-5.438,0.832-8.123l23.803,3.063C304.801,508.01,304.564,510.325,304.391,512.616z
									 M567.604,512.513c-0.178-2.301-0.416-4.616-0.711-6.881l23.801-3.086c0.348,2.675,0.629,5.406,0.838,8.119L567.604,512.513
									z M306.156,498.911l-23.609-4.314c0.488-2.674,1.055-5.365,1.682-8.002l23.348,5.56
									C307.047,494.38,306.568,496.653,306.156,498.911z M565.826,498.81c-0.414-2.258-0.895-4.532-1.428-6.759l23.344-5.577
									c0.629,2.636,1.197,5.326,1.689,7.997L565.826,498.81z M309.354,485.485l-23.02-6.793c0.768-2.602,1.617-5.219,2.521-7.778
									l22.627,8.004C310.717,481.08,310.001,483.29,309.354,485.485z M562.619,485.386c-0.652-2.201-1.371-4.41-2.135-6.566
									l22.617-8.025c0.906,2.554,1.758,5.17,2.529,7.775L562.619,485.386z M313.957,472.472l-22.172-9.189
									c0.146-0.354,0.295-0.707,0.444-1.06c0.906-2.144,1.876-4.301,2.878-6.401l21.662,10.334
									c-0.848,1.777-1.669,3.603-2.439,5.426C314.201,471.886,314.078,472.179,313.957,472.472z M558.002,472.372l-0.328-0.785
									c-0.787-1.862-1.625-3.721-2.49-5.53l21.656-10.348c1.02,2.138,2.008,4.332,2.936,6.523l0.391,0.935L558.002,472.372z
									 M319.907,459.997l-21.091-11.455c1.298-2.388,2.674-4.77,4.09-7.078l20.456,12.553
									C322.166,455.967,321.004,457.979,319.907,459.997z M552.045,459.906c-1.102-2.022-2.266-4.036-3.463-5.981l20.447-12.566
									c1.416,2.302,2.793,4.68,4.094,7.069L552.045,459.906z M327.129,448.225l-19.768-13.61c1.537-2.23,3.155-4.453,4.811-6.606
									l19.023,14.633C329.795,444.461,328.428,446.34,327.129,448.225z M544.813,448.138c-1.299-1.881-2.67-3.76-4.074-5.583
									l19.014-14.646c1.66,2.154,3.279,4.375,4.816,6.602L544.813,448.138z M335.553,437.272l-18.234-15.605
									c1.752-2.048,3.59-4.086,5.459-6.057l17.412,16.518C338.6,433.804,337.039,435.534,335.553,437.272z M536.379,437.19
									c-1.492-1.741-3.055-3.471-4.641-5.139l17.395-16.536c1.867,1.965,3.707,4.002,5.467,6.055L536.379,437.19z
									 M345.084,427.228l-16.543-17.387c1.966-1.871,4.002-3.711,6.053-5.471l15.627,18.217
									C348.48,424.079,346.753,425.64,345.084,427.228z M526.84,427.155c-1.676-1.592-3.404-3.152-5.141-4.639l15.611-18.229
									c2.045,1.753,4.084,3.591,6.055,5.464L526.84,427.155z M355.584,418.223l-14.654-19.006
									c2.153-1.661,4.374-3.282,6.601-4.819l13.634,19.752C359.283,415.448,357.406,416.818,355.584,418.223z M516.332,418.157
									c-1.818-1.399-3.697-2.769-5.584-4.07l13.621-19.76c2.232,1.539,4.453,3.158,6.604,4.813L516.332,418.157z M366.949,410.376
									l-12.574-20.442c2.309-1.42,4.688-2.798,7.07-4.097l11.482,21.075C370.912,408.01,368.9,409.175,366.949,410.376z
									 M504.961,410.321c-1.957-1.203-3.969-2.366-5.98-3.459l11.463-21.086c2.379,1.293,4.76,2.67,7.074,4.091L504.961,410.321z
									 M379.079,403.768l-10.356-21.649c2.156-1.032,4.371-2.029,6.58-2.965l0.871-0.364l9.224,22.156l-0.75,0.314
									C382.781,402.05,380.906,402.894,379.079,403.768z M492.822,403.722c-1.789-0.855-3.631-1.684-5.477-2.465l-0.836-0.351
									l9.196-22.168l0.99,0.415c2.18,0.922,4.356,1.901,6.471,2.912L492.822,403.722z M391.839,398.464l-8.032-22.615
									c2.561-0.91,5.177-1.762,7.775-2.531l6.82,23.01C396.209,396.978,394,397.696,391.839,398.464z M480.064,398.429
									c-2.164-0.766-4.374-1.483-6.568-2.132l6.805-23.016c2.598,0.769,5.213,1.618,7.775,2.524L480.064,398.429z M405.07,394.542
									l-5.588-23.341c2.635-0.631,5.326-1.2,8-1.692l4.342,23.604C409.566,393.528,407.295,394.009,405.07,394.542z
									 M466.83,394.519c-2.229-0.532-4.502-1.011-6.758-1.424l4.324-23.607c2.67,0.488,5.361,1.056,8,1.685L466.83,394.519z
									 M418.648,392.043l-3.095-23.8c2.683-0.349,5.417-0.632,8.124-0.841l1.848,23.929
									C423.232,391.508,420.92,391.747,418.648,392.043z M453.248,392.029c-2.275-0.294-4.59-0.531-6.881-0.706l1.83-23.931
									c2.705,0.207,5.438,0.487,8.123,0.835L453.248,392.029z"/>
							</g>
						</g>
					</g>
				</g>
				<g>
					<g>
						<g>
							<g>
								<path fill="#86CCCC" d="M432.55,390.972l-0.599-23.992c1.346-0.033,2.708-0.051,4.049-0.051v24
									C434.848,390.929,433.697,390.943,432.55,390.972z"/>
							</g>
						</g>
					</g>
				</g>
			</g>
			<g>
				<g>
					<g>
						<polygon fill="#0E3656" points="562.219,411.559 547.369,396.71 421.146,508.083 450.846,537.783 						"/>
					</g>
				</g>
			</g>
			<g>
				<g>
					<g>
						<circle fill="#0E3656" cx="436" cy="522.929" r="48"/>
					</g>
				</g>
			</g>
			<g>
				<g>
					<g>
						<circle fill="#EFEEEE" cx="436" cy="522.929" r="23.323"/>
					</g>
				</g>
			</g>
		</g>
	</g>
	<g>
		<g>
			<g>
				<g>
					<path fill="#0E3656" d="M2187.588,623.022c-17.373-17.372-41.373-28.117-67.883-28.117v96L2187.588,623.022z"/>
				</g>
			</g>
		</g>
		<g>
			<g>
				<g>
					<path fill="#86CCCC" d="M2119.705,594.905c-53.02,0-96,42.98-96,96s42.98,96,96,96c26.51,0,50.51-10.745,67.883-28.117
						l-67.883-67.883V594.905z"/>
				</g>
			</g>
		</g>
		<g>
			<g>
				<g>
					<path fill="#EB5949" d="M2187.588,623.022l-67.883,67.883l67.883,67.883c17.372-17.373,28.117-41.373,28.117-67.883
						S2204.96,640.396,2187.588,623.022z"/>
				</g>
			</g>
		</g>
	</g>
	<g>
		<g>
			<g>
				<g>
					<path fill="#0E3656" d="M609.055,1234.905c0.291-2.627,0.445-5.295,0.445-8c0-2.704-0.154-5.372-0.445-8h-18.146
						c-0.608-4.095-1.674-8.04-3.147-11.78l15.717-9.074c-2.159-4.93-4.853-9.571-8.011-13.851l-15.72,9.075
						c-2.54-3.186-5.432-6.078-8.619-8.618l9.076-15.72c-4.279-3.158-8.921-5.852-13.851-8.011l-9.074,15.717
						c-3.741-1.474-7.686-2.538-11.781-3.147v-18.146c-2.627-0.291-5.295-0.445-8-0.445s-5.373,0.154-8,0.445v18.146
						c-4.095,0.609-8.04,1.674-11.781,3.147l-9.075-15.717c-4.93,2.159-9.571,4.853-13.85,8.011l9.076,15.72
						c-3.187,2.54-6.079,5.433-8.619,8.619l-15.72-9.076c-3.158,4.279-5.852,8.921-8.011,13.851l15.717,9.074
						c-1.473,3.74-2.539,7.686-3.147,11.78h-18.146c-0.291,2.628-0.445,5.296-0.445,8c0,2.705,0.154,5.373,0.445,8h18.146
						c0.608,4.095,1.674,8.04,3.147,11.781l-15.717,9.074c2.159,4.93,4.853,9.571,8.011,13.851l15.72-9.076
						c2.54,3.188,5.432,6.079,8.619,8.619l-9.076,15.72c4.279,3.157,8.92,5.852,13.85,8.011l9.074-15.717
						c3.741,1.473,7.686,2.539,11.781,3.146v18.146c2.627,0.291,5.295,0.444,8,0.444s5.373-0.153,8-0.444v-18.146
						c4.095-0.607,8.041-1.674,11.781-3.146l9.074,15.717c4.93-2.159,9.571-4.854,13.85-8.011l-9.076-15.72
						c3.186-2.54,6.079-5.432,8.618-8.619l15.72,9.076c3.158-4.279,5.852-8.92,8.011-13.85l-15.717-9.074
						c1.474-3.741,2.539-7.688,3.147-11.782H609.055z"/>
				</g>
			</g>
		</g>
		<g>
			<g>
				<g>
					<circle fill="#EFEEEE" cx="537.5" cy="1226.905" r="32"/>
				</g>
			</g>
		</g>
		<g>
			<g>
				<g>
					<circle fill="#36687D" cx="537.5" cy="1226.906" r="13.986"/>
				</g>
			</g>
		</g>
	</g>
</g>
</svg>
